<svg xmlns="http://www.w3.org/2000/svg" xmlns:xlink="http://www.w3.org/1999/xlink" width="1920" zoomAndPan="magnify" viewBox="0 0 1440 525.000007" height="700" preserveAspectRatio="xMidYMid meet" version="1.0"><defs><clipPath id="73561dd8f4"><path d="M 1.367188 0 L 1438.628906 0 L 1438.628906 524 L 1.367188 524 Z M 1.367188 0 " clip-rule="nonzero"/></clipPath><clipPath id="1dfd94b6ad"><path d="M 1426 380.773438 L 1438.628906 380.773438 L 1438.628906 417 L 1426 417 Z M 1426 380.773438 " clip-rule="nonzero"/></clipPath><clipPath id="5c2c2f1e05"><path d="M 1370 465 L 1438.628906 465 L 1438.628906 524 L 1370 524 Z M 1370 465 " clip-rule="nonzero"/></clipPath><clipPath id="fddcf2b2ce"><path d="M 1411 503 L 1438.628906 503 L 1438.628906 524 L 1411 524 Z M 1411 503 " clip-rule="nonzero"/></clipPath><clipPath id="5e9c673759"><path d="M 1385 439 L 1438.628906 439 L 1438.628906 516 L 1385 516 Z M 1385 439 " clip-rule="nonzero"/></clipPath><clipPath id="c3ab1b333f"><path d="M 1302 488 L 1389 488 L 1389 524 L 1302 524 Z M 1302 488 " clip-rule="nonzero"/></clipPath><clipPath id="5ed0623b65"><path d="M 1273.964844 494 L 1352 494 L 1352 524 L 1273.964844 524 Z M 1273.964844 494 " clip-rule="nonzero"/></clipPath><clipPath id="b26771e8e1"><path d="M 1424 409 L 1438.628906 409 L 1438.628906 447 L 1424 447 Z M 1424 409 " clip-rule="nonzero"/></clipPath><clipPath id="6fa1d95724"><path d="M 5.3125 127 L 40 127 L 40 162.476562 L 5.3125 162.476562 Z M 5.3125 127 " clip-rule="nonzero"/></clipPath><clipPath id="6573cd3559"><path d="M 5.3125 9 L 97 9 L 97 78 L 5.3125 78 Z M 5.3125 9 " clip-rule="nonzero"/></clipPath><clipPath id="f36f0ae617"><path d="M 14 0.0351562 L 55 0.0351562 L 55 40 L 14 40 Z M 14 0.0351562 " clip-rule="nonzero"/></clipPath><clipPath id="5a21c70100"><path d="M 5.3125 27 L 82 27 L 82 104 L 5.3125 104 Z M 5.3125 27 " clip-rule="nonzero"/></clipPath><clipPath id="ec543b8564"><path d="M 78 0.0351562 L 164 0.0351562 L 164 56 L 78 56 Z M 78 0.0351562 " clip-rule="nonzero"/></clipPath><clipPath id="6b163830a4"><path d="M 114 0.0351562 L 192.457031 0.0351562 L 192.457031 49 L 114 49 Z M 114 0.0351562 " clip-rule="nonzero"/></clipPath><clipPath id="d0a9310d96"><path d="M 5.3125 96 L 42 96 L 42 134 L 5.3125 134 Z M 5.3125 96 " clip-rule="nonzero"/></clipPath></defs><g clip-path="url(#73561dd8f4)"><path fill="#ffffff" d="M 1.367188 0 L 1438.632812 0 L 1438.632812 524 L 1.367188 524 Z M 1.367188 0 " fill-opacity="1" fill-rule="nonzero"/><path fill="#130c23" d="M 1.367188 0 L 1438.632812 0 L 1438.632812 524 L 1.367188 524 Z M 1.367188 0 " fill-opacity="1" fill-rule="nonzero"/></g><path fill="#d9d9d9" d="M 1407.445312 464.464844 C 1407.71875 464.191406 1407.964844 463.894531 1408.179688 463.570312 C 1408.398438 463.246094 1408.578125 462.90625 1408.726562 462.546875 C 1408.875 462.1875 1408.988281 461.820312 1409.0625 461.4375 C 1409.140625 461.058594 1409.175781 460.671875 1409.175781 460.285156 C 1409.175781 459.894531 1409.140625 459.511719 1409.0625 459.128906 C 1408.988281 458.75 1408.875 458.378906 1408.726562 458.019531 C 1408.578125 457.660156 1408.394531 457.320312 1408.179688 456.996094 C 1407.964844 456.675781 1407.71875 456.375 1407.445312 456.101562 C 1407.171875 455.828125 1406.871094 455.582031 1406.546875 455.367188 C 1406.226562 455.148438 1405.886719 454.96875 1405.527344 454.820312 C 1405.167969 454.671875 1404.796875 454.558594 1404.417969 454.484375 C 1404.035156 454.40625 1403.652344 454.367188 1403.261719 454.367188 C 1402.875 454.367188 1402.488281 454.40625 1402.109375 454.484375 C 1401.726562 454.558594 1401.359375 454.671875 1401 454.820312 C 1400.640625 454.96875 1400.300781 455.148438 1399.976562 455.367188 C 1399.652344 455.582031 1399.355469 455.828125 1399.078125 456.101562 C 1398.804688 456.375 1398.558594 456.675781 1398.34375 456.996094 C 1398.128906 457.320312 1397.945312 457.660156 1397.796875 458.019531 C 1397.648438 458.378906 1397.535156 458.75 1397.460938 459.128906 C 1397.386719 459.511719 1397.347656 459.894531 1397.347656 460.285156 C 1397.347656 460.671875 1397.386719 461.058594 1397.460938 461.4375 C 1397.535156 461.820312 1397.648438 462.1875 1397.796875 462.546875 C 1397.945312 462.90625 1398.128906 463.246094 1398.34375 463.570312 C 1398.558594 463.894531 1398.804688 464.191406 1399.078125 464.464844 C 1399.355469 464.742188 1399.652344 464.988281 1399.976562 465.203125 C 1400.296875 465.417969 1400.640625 465.601562 1401 465.75 C 1401.355469 465.898438 1401.726562 466.011719 1402.109375 466.085938 C 1402.488281 466.160156 1402.875 466.199219 1403.261719 466.199219 C 1403.652344 466.199219 1404.035156 466.160156 1404.417969 466.085938 C 1404.796875 466.011719 1405.167969 465.898438 1405.527344 465.75 C 1405.886719 465.601562 1406.226562 465.417969 1406.550781 465.203125 C 1406.871094 464.988281 1407.171875 464.742188 1407.445312 464.464844 Z M 1407.445312 464.464844 " fill-opacity="1" fill-rule="nonzero"/><g clip-path="url(#1dfd94b6ad)"><path fill="#d9d9d9" d="M 1461.109375 380.828125 L 1435.101562 406.839844 C 1434.929688 406.707031 1434.75 406.585938 1434.5625 406.476562 C 1434.378906 406.371094 1434.183594 406.273438 1433.988281 406.1875 C 1433.789062 406.101562 1433.585938 406.03125 1433.378906 405.96875 C 1433.171875 405.910156 1432.960938 405.863281 1432.746094 405.832031 C 1432.53125 405.796875 1432.316406 405.777344 1432.101562 405.773438 C 1431.886719 405.765625 1431.671875 405.773438 1431.457031 405.792969 C 1431.242188 405.816406 1431.027344 405.847656 1430.816406 405.898438 C 1430.605469 405.945312 1430.398438 406.003906 1430.195312 406.078125 C 1429.992188 406.152344 1429.796875 406.238281 1429.605469 406.335938 C 1429.410156 406.4375 1429.226562 406.546875 1429.046875 406.667969 C 1428.871094 406.789062 1428.699219 406.921875 1428.539062 407.066406 C 1428.375 407.210938 1428.226562 407.363281 1428.082031 407.523438 C 1427.941406 407.6875 1427.808594 407.855469 1427.6875 408.035156 C 1427.566406 408.214844 1427.457031 408.402344 1427.359375 408.59375 C 1427.261719 408.785156 1427.175781 408.984375 1427.101562 409.1875 C 1427.03125 409.390625 1426.96875 409.597656 1426.921875 409.808594 C 1426.878906 410.019531 1426.84375 410.230469 1426.824219 410.449219 C 1426.804688 410.664062 1426.796875 410.878906 1426.804688 411.09375 C 1426.8125 411.308594 1426.832031 411.523438 1426.867188 411.738281 C 1426.898438 411.949219 1426.949219 412.160156 1427.007812 412.367188 C 1427.070312 412.574219 1427.140625 412.777344 1427.226562 412.976562 C 1427.3125 413.175781 1427.410156 413.367188 1427.523438 413.550781 C 1427.632812 413.738281 1427.753906 413.917969 1427.886719 414.085938 C 1428.019531 414.257812 1428.160156 414.417969 1428.3125 414.570312 C 1428.464844 414.722656 1428.628906 414.867188 1428.800781 415 C 1428.96875 415.132812 1429.148438 415.253906 1429.335938 415.363281 C 1429.519531 415.472656 1429.710938 415.570312 1429.910156 415.65625 C 1430.109375 415.742188 1430.3125 415.8125 1430.519531 415.875 C 1430.726562 415.933594 1430.9375 415.980469 1431.148438 416.015625 C 1431.363281 416.050781 1431.578125 416.070312 1431.792969 416.074219 C 1432.007812 416.082031 1432.226562 416.074219 1432.441406 416.054688 C 1432.65625 416.035156 1432.867188 416 1433.078125 415.953125 C 1433.289062 415.90625 1433.496094 415.847656 1433.699219 415.773438 C 1433.902344 415.703125 1434.101562 415.617188 1434.292969 415.519531 C 1434.484375 415.421875 1434.671875 415.308594 1434.851562 415.1875 C 1435.027344 415.066406 1435.199219 414.9375 1435.363281 414.792969 C 1435.523438 414.652344 1435.675781 414.5 1435.820312 414.335938 C 1435.960938 414.175781 1436.09375 414.003906 1436.214844 413.824219 C 1436.335938 413.648438 1436.449219 413.460938 1436.546875 413.269531 C 1436.644531 413.078125 1436.730469 412.878906 1436.804688 412.675781 C 1436.875 412.472656 1436.9375 412.265625 1436.984375 412.054688 C 1437.03125 411.84375 1437.066406 411.632812 1437.085938 411.417969 C 1437.105469 411.203125 1437.113281 410.988281 1437.109375 410.769531 C 1437.101562 410.554688 1437.082031 410.339844 1437.046875 410.125 C 1437.015625 409.914062 1436.96875 409.703125 1436.910156 409.496094 C 1436.847656 409.289062 1436.777344 409.085938 1436.691406 408.886719 C 1436.605469 408.6875 1436.507812 408.496094 1436.398438 408.308594 C 1436.289062 408.125 1436.167969 407.945312 1436.035156 407.773438 L 1461.109375 382.699219 Z M 1434.664062 413.636719 C 1434.457031 413.847656 1434.226562 414.027344 1433.976562 414.183594 C 1433.726562 414.339844 1433.460938 414.464844 1433.183594 414.558594 C 1432.90625 414.652344 1432.617188 414.714844 1432.324219 414.742188 C 1432.035156 414.773438 1431.742188 414.769531 1431.449219 414.730469 C 1431.15625 414.691406 1430.875 414.621094 1430.597656 414.515625 C 1430.324219 414.414062 1430.0625 414.28125 1429.816406 414.117188 C 1429.574219 413.953125 1429.351562 413.761719 1429.148438 413.546875 C 1428.949219 413.335938 1428.773438 413.097656 1428.625 412.84375 C 1428.480469 412.589844 1428.363281 412.320312 1428.277344 412.039062 C 1428.191406 411.757812 1428.140625 411.46875 1428.121094 411.175781 C 1428.101562 410.882812 1428.113281 410.589844 1428.164062 410.300781 C 1428.210938 410.011719 1428.289062 409.730469 1428.402344 409.457031 C 1428.515625 409.183594 1428.65625 408.929688 1428.828125 408.691406 C 1429 408.449219 1429.195312 408.234375 1429.417969 408.039062 C 1429.640625 407.847656 1429.878906 407.679688 1430.140625 407.539062 C 1430.398438 407.402344 1430.671875 407.292969 1430.957031 407.21875 C 1431.238281 407.140625 1431.527344 407.097656 1431.824219 407.089844 C 1432.117188 407.078125 1432.410156 407.101562 1432.695312 407.160156 C 1432.984375 407.21875 1433.265625 407.308594 1433.53125 407.429688 C 1433.800781 407.550781 1434.050781 407.699219 1434.285156 407.878906 C 1434.519531 408.058594 1434.726562 408.261719 1434.914062 408.488281 C 1435.101562 408.71875 1435.261719 408.960938 1435.390625 409.226562 C 1435.519531 409.492188 1435.621094 409.765625 1435.6875 410.050781 C 1435.753906 410.339844 1435.785156 410.628906 1435.785156 410.921875 C 1435.789062 411.984375 1435.414062 412.886719 1434.664062 413.636719 Z M 1434.664062 413.636719 " fill-opacity="1" fill-rule="nonzero"/></g><g clip-path="url(#5c2c2f1e05)"><path fill="#d9d9d9" d="M 1461.109375 465.714844 L 1398.5625 528.261719 L 1380.398438 528.261719 C 1380.367188 528.046875 1380.328125 527.835938 1380.273438 527.625 C 1380.21875 527.417969 1380.152344 527.210938 1380.070312 527.011719 C 1379.992188 526.8125 1379.898438 526.617188 1379.792969 526.425781 C 1379.691406 526.238281 1379.574219 526.054688 1379.445312 525.878906 C 1379.320312 525.707031 1379.179688 525.539062 1379.03125 525.382812 C 1378.882812 525.226562 1378.726562 525.078125 1378.558594 524.941406 C 1378.394531 524.804688 1378.21875 524.675781 1378.035156 524.5625 C 1377.851562 524.445312 1377.664062 524.339844 1377.46875 524.25 C 1377.269531 524.160156 1377.070312 524.078125 1376.863281 524.011719 C 1376.660156 523.945312 1376.449219 523.894531 1376.238281 523.851562 C 1376.023438 523.8125 1375.808594 523.785156 1375.59375 523.773438 C 1375.378906 523.757812 1375.164062 523.761719 1374.945312 523.773438 C 1374.730469 523.789062 1374.515625 523.816406 1374.304688 523.855469 C 1374.09375 523.898438 1373.882812 523.949219 1373.679688 524.015625 C 1373.472656 524.085938 1373.273438 524.164062 1373.074219 524.257812 C 1372.878906 524.347656 1372.691406 524.453125 1372.507812 524.570312 C 1372.328125 524.683594 1372.152344 524.8125 1371.984375 524.949219 C 1371.820312 525.089844 1371.660156 525.234375 1371.515625 525.394531 C 1371.367188 525.550781 1371.226562 525.71875 1371.101562 525.894531 C 1370.972656 526.066406 1370.859375 526.25 1370.753906 526.441406 C 1370.652344 526.628906 1370.558594 526.824219 1370.480469 527.027344 C 1370.398438 527.226562 1370.332031 527.433594 1370.28125 527.640625 C 1370.226562 527.851562 1370.183594 528.0625 1370.15625 528.277344 C 1370.132812 528.492188 1370.117188 528.707031 1370.117188 528.925781 C 1370.117188 529.140625 1370.132812 529.355469 1370.15625 529.570312 C 1370.183594 529.785156 1370.226562 529.996094 1370.28125 530.207031 C 1370.332031 530.414062 1370.398438 530.621094 1370.480469 530.820312 C 1370.558594 531.023438 1370.652344 531.21875 1370.753906 531.40625 C 1370.859375 531.597656 1370.972656 531.78125 1371.101562 531.953125 C 1371.226562 532.128906 1371.367188 532.296875 1371.515625 532.453125 C 1371.660156 532.613281 1371.820312 532.761719 1371.984375 532.898438 C 1372.152344 533.035156 1372.328125 533.164062 1372.507812 533.277344 C 1372.691406 533.394531 1372.878906 533.5 1373.074219 533.589844 C 1373.269531 533.683594 1373.472656 533.761719 1373.675781 533.832031 C 1373.882812 533.898438 1374.09375 533.953125 1374.304688 533.992188 C 1374.515625 534.03125 1374.730469 534.058594 1374.945312 534.074219 C 1375.164062 534.089844 1375.378906 534.089844 1375.59375 534.074219 C 1375.808594 534.0625 1376.023438 534.035156 1376.238281 533.996094 C 1376.449219 533.953125 1376.660156 533.902344 1376.863281 533.835938 C 1377.070312 533.769531 1377.269531 533.691406 1377.46875 533.597656 C 1377.664062 533.507812 1377.851562 533.402344 1378.035156 533.289062 C 1378.21875 533.171875 1378.394531 533.046875 1378.558594 532.90625 C 1378.726562 532.769531 1378.882812 532.621094 1379.03125 532.464844 C 1379.179688 532.308594 1379.320312 532.140625 1379.445312 531.96875 C 1379.574219 531.792969 1379.691406 531.609375 1379.792969 531.421875 C 1379.898438 531.234375 1379.992188 531.039062 1380.070312 530.835938 C 1380.152344 530.636719 1380.21875 530.429688 1380.273438 530.222656 C 1380.328125 530.011719 1380.367188 529.800781 1380.398438 529.585938 L 1399.109375 529.585938 L 1461.109375 467.585938 Z M 1375.277344 532.761719 C 1374.769531 532.761719 1374.28125 532.664062 1373.808594 532.472656 C 1373.339844 532.277344 1372.925781 532 1372.566406 531.640625 C 1372.203125 531.277344 1371.925781 530.863281 1371.734375 530.394531 C 1371.539062 529.921875 1371.441406 529.433594 1371.441406 528.925781 C 1371.441406 528.417969 1371.539062 527.925781 1371.734375 527.457031 C 1371.925781 526.988281 1372.203125 526.570312 1372.566406 526.210938 C 1372.925781 525.851562 1373.339844 525.574219 1373.808594 525.378906 C 1374.28125 525.183594 1374.769531 525.085938 1375.277344 525.085938 C 1375.785156 525.085938 1376.277344 525.183594 1376.746094 525.378906 C 1377.21875 525.574219 1377.632812 525.851562 1377.992188 526.210938 C 1378.351562 526.570312 1378.628906 526.988281 1378.824219 527.457031 C 1379.019531 527.925781 1379.117188 528.417969 1379.117188 528.925781 C 1379.117188 529.433594 1379.019531 529.921875 1378.824219 530.394531 C 1378.628906 530.863281 1378.351562 531.277344 1377.992188 531.640625 C 1377.632812 532 1377.21875 532.277344 1376.746094 532.472656 C 1376.277344 532.664062 1375.785156 532.761719 1375.277344 532.761719 Z M 1375.277344 532.761719 " fill-opacity="1" fill-rule="nonzero"/></g><g clip-path="url(#fddcf2b2ce)"><path fill="#d9d9d9" d="M 1447.765625 503.636719 C 1447.339844 503.636719 1446.917969 503.695312 1446.503906 503.8125 C 1446.09375 503.929688 1445.703125 504.101562 1445.339844 504.328125 C 1444.976562 504.554688 1444.648438 504.824219 1444.359375 505.140625 C 1444.070312 505.460938 1443.828125 505.808594 1443.636719 506.191406 C 1443.445312 506.574219 1443.308594 506.976562 1443.226562 507.398438 C 1443.148438 507.820312 1443.125 508.246094 1443.164062 508.671875 C 1443.203125 509.097656 1443.296875 509.511719 1443.449219 509.914062 C 1443.601562 510.316406 1443.804688 510.6875 1444.0625 511.03125 L 1411.949219 543.140625 L 1413.824219 543.140625 L 1444.996094 511.96875 C 1445.289062 512.1875 1445.605469 512.371094 1445.945312 512.515625 C 1446.28125 512.660156 1446.628906 512.765625 1446.992188 512.828125 C 1447.355469 512.886719 1447.71875 512.90625 1448.085938 512.882812 C 1448.449219 512.859375 1448.808594 512.792969 1449.160156 512.683594 C 1449.507812 512.574219 1449.84375 512.421875 1450.15625 512.234375 C 1450.472656 512.046875 1450.761719 511.824219 1451.023438 511.566406 C 1451.285156 511.308594 1451.511719 511.023438 1451.707031 510.710938 C 1451.902344 510.398438 1452.054688 510.070312 1452.171875 509.722656 C 1452.289062 509.375 1452.359375 509.015625 1452.390625 508.652344 C 1452.421875 508.285156 1452.410156 507.921875 1452.355469 507.558594 C 1452.296875 507.195312 1452.199219 506.84375 1452.0625 506.503906 C 1451.921875 506.164062 1451.746094 505.84375 1451.53125 505.546875 C 1451.3125 505.25 1451.066406 504.980469 1450.789062 504.742188 C 1450.507812 504.503906 1450.207031 504.300781 1449.878906 504.136719 C 1449.550781 503.96875 1449.210938 503.84375 1448.851562 503.757812 C 1448.496094 503.671875 1448.132812 503.628906 1447.765625 503.628906 Z M 1450.101562 510.597656 C 1449.921875 510.777344 1449.722656 510.933594 1449.507812 511.066406 C 1449.292969 511.203125 1449.066406 511.308594 1448.824219 511.390625 C 1448.585938 511.472656 1448.339844 511.527344 1448.085938 511.550781 C 1447.832031 511.578125 1447.582031 511.574219 1447.328125 511.539062 C 1447.078125 511.507812 1446.832031 511.445312 1446.597656 511.355469 C 1446.359375 511.265625 1446.132812 511.152344 1445.921875 511.011719 C 1445.710938 510.871094 1445.519531 510.707031 1445.347656 510.523438 C 1445.171875 510.335938 1445.023438 510.132812 1444.894531 509.914062 C 1444.769531 509.695312 1444.667969 509.464844 1444.59375 509.21875 C 1444.519531 508.976562 1444.476562 508.730469 1444.460938 508.476562 C 1444.441406 508.222656 1444.453125 507.972656 1444.496094 507.722656 C 1444.539062 507.46875 1444.605469 507.226562 1444.703125 506.992188 C 1444.800781 506.757812 1444.921875 506.539062 1445.070312 506.332031 C 1445.21875 506.125 1445.386719 505.941406 1445.578125 505.773438 C 1445.769531 505.605469 1445.976562 505.460938 1446.199219 505.34375 C 1446.425781 505.222656 1446.660156 505.128906 1446.90625 505.0625 C 1447.148438 505 1447.398438 504.960938 1447.652344 504.953125 C 1447.90625 504.945312 1448.15625 504.964844 1448.40625 505.015625 C 1448.65625 505.066406 1448.894531 505.140625 1449.125 505.246094 C 1449.359375 505.351562 1449.574219 505.480469 1449.773438 505.636719 C 1449.976562 505.789062 1450.15625 505.964844 1450.320312 506.160156 C 1450.480469 506.359375 1450.617188 506.570312 1450.726562 506.796875 C 1450.839844 507.027344 1450.925781 507.261719 1450.984375 507.511719 C 1451.039062 507.757812 1451.070312 508.007812 1451.070312 508.261719 C 1451.066406 509.171875 1450.746094 509.953125 1450.101562 510.597656 Z M 1450.101562 510.597656 " fill-opacity="1" fill-rule="nonzero"/></g><g clip-path="url(#5e9c673759)"><path fill="#d9d9d9" d="M 1461.109375 439.339844 L 1393.722656 506.726562 C 1393.550781 506.59375 1393.371094 506.472656 1393.183594 506.363281 C 1392.996094 506.253906 1392.804688 506.15625 1392.605469 506.074219 C 1392.40625 505.988281 1392.203125 505.914062 1391.996094 505.855469 C 1391.789062 505.796875 1391.578125 505.75 1391.363281 505.714844 C 1391.152344 505.683594 1390.9375 505.664062 1390.71875 505.65625 C 1390.503906 505.652344 1390.289062 505.660156 1390.074219 505.679688 C 1389.855469 505.699219 1389.644531 505.734375 1389.433594 505.78125 C 1389.222656 505.832031 1389.015625 505.890625 1388.8125 505.964844 C 1388.609375 506.039062 1388.410156 506.125 1388.21875 506.222656 C 1388.027344 506.324219 1387.839844 506.433594 1387.660156 506.554688 C 1387.484375 506.675781 1387.3125 506.808594 1387.152344 506.953125 C 1386.988281 507.097656 1386.835938 507.25 1386.695312 507.410156 C 1386.550781 507.574219 1386.417969 507.746094 1386.296875 507.925781 C 1386.175781 508.101562 1386.066406 508.289062 1385.96875 508.480469 C 1385.871094 508.675781 1385.785156 508.875 1385.714844 509.078125 C 1385.640625 509.28125 1385.582031 509.488281 1385.535156 509.699219 C 1385.488281 509.910156 1385.453125 510.125 1385.433594 510.339844 C 1385.414062 510.554688 1385.40625 510.769531 1385.414062 510.984375 C 1385.421875 511.203125 1385.441406 511.417969 1385.476562 511.628906 C 1385.511719 511.84375 1385.558594 512.054688 1385.617188 512.261719 C 1385.679688 512.46875 1385.753906 512.671875 1385.839844 512.871094 C 1385.925781 513.070312 1386.023438 513.261719 1386.132812 513.449219 C 1386.242188 513.632812 1386.363281 513.8125 1386.496094 513.984375 C 1386.628906 514.152344 1386.773438 514.316406 1386.925781 514.46875 C 1387.078125 514.621094 1387.242188 514.761719 1387.414062 514.894531 C 1387.582031 515.027344 1387.761719 515.148438 1387.949219 515.257812 C 1388.132812 515.371094 1388.328125 515.46875 1388.523438 515.554688 C 1388.722656 515.640625 1388.925781 515.710938 1389.132812 515.773438 C 1389.34375 515.832031 1389.550781 515.878906 1389.765625 515.914062 C 1389.980469 515.949219 1390.195312 515.96875 1390.410156 515.972656 C 1390.625 515.980469 1390.84375 515.976562 1391.058594 515.953125 C 1391.273438 515.933594 1391.484375 515.898438 1391.699219 515.851562 C 1391.910156 515.804688 1392.117188 515.746094 1392.320312 515.671875 C 1392.523438 515.597656 1392.722656 515.515625 1392.914062 515.414062 C 1393.105469 515.316406 1393.292969 515.207031 1393.472656 515.085938 C 1393.648438 514.964844 1393.820312 514.832031 1393.984375 514.691406 C 1394.144531 514.546875 1394.296875 514.394531 1394.441406 514.234375 C 1394.585938 514.070312 1394.71875 513.898438 1394.839844 513.722656 C 1394.960938 513.542969 1395.070312 513.355469 1395.167969 513.164062 C 1395.265625 512.972656 1395.351562 512.773438 1395.425781 512.570312 C 1395.5 512.367188 1395.5625 512.160156 1395.609375 511.949219 C 1395.65625 511.738281 1395.691406 511.523438 1395.710938 511.308594 C 1395.730469 511.09375 1395.738281 510.878906 1395.730469 510.664062 C 1395.726562 510.445312 1395.707031 510.230469 1395.671875 510.019531 C 1395.636719 509.804688 1395.589844 509.59375 1395.53125 509.386719 C 1395.472656 509.179688 1395.398438 508.976562 1395.3125 508.777344 C 1395.226562 508.578125 1395.128906 508.386719 1395.019531 508.199219 C 1394.910156 508.011719 1394.789062 507.832031 1394.660156 507.664062 L 1461.109375 441.210938 Z M 1393.285156 513.527344 C 1392.925781 513.886719 1392.511719 514.164062 1392.039062 514.359375 C 1391.570312 514.554688 1391.078125 514.652344 1390.570312 514.652344 C 1390.0625 514.652344 1389.574219 514.554688 1389.101562 514.359375 C 1388.632812 514.164062 1388.214844 513.886719 1387.855469 513.527344 C 1387.496094 513.167969 1387.21875 512.753906 1387.023438 512.28125 C 1386.828125 511.8125 1386.734375 511.324219 1386.734375 510.8125 C 1386.734375 510.304688 1386.828125 509.816406 1387.023438 509.34375 C 1387.21875 508.875 1387.496094 508.460938 1387.855469 508.101562 C 1388.214844 507.742188 1388.632812 507.464844 1389.101562 507.269531 C 1389.574219 507.074219 1390.0625 506.976562 1390.570312 506.976562 C 1391.078125 506.976562 1391.570312 507.074219 1392.039062 507.269531 C 1392.511719 507.464844 1392.925781 507.742188 1393.285156 508.101562 C 1393.464844 508.277344 1393.625 508.472656 1393.765625 508.679688 C 1393.90625 508.890625 1394.027344 509.113281 1394.125 509.34375 C 1394.222656 509.578125 1394.292969 509.816406 1394.34375 510.066406 C 1394.394531 510.3125 1394.417969 510.5625 1394.417969 510.8125 C 1394.417969 511.066406 1394.394531 511.316406 1394.34375 511.5625 C 1394.292969 511.8125 1394.222656 512.050781 1394.125 512.285156 C 1394.027344 512.515625 1393.90625 512.738281 1393.765625 512.949219 C 1393.625 513.15625 1393.464844 513.351562 1393.285156 513.527344 Z M 1393.285156 513.527344 " fill-opacity="1" fill-rule="nonzero"/></g><g clip-path="url(#c3ab1b333f)"><path fill="#d9d9d9" d="M 1328.398438 519.503906 L 1357.691406 519.503906 L 1379.933594 497.257812 C 1380.105469 497.390625 1380.285156 497.507812 1380.472656 497.617188 C 1380.660156 497.726562 1380.851562 497.824219 1381.050781 497.910156 C 1381.25 497.996094 1381.453125 498.070312 1381.660156 498.128906 C 1381.867188 498.1875 1382.078125 498.234375 1382.292969 498.265625 C 1382.503906 498.300781 1382.71875 498.320312 1382.9375 498.328125 C 1383.152344 498.332031 1383.367188 498.324219 1383.582031 498.304688 C 1383.800781 498.28125 1384.011719 498.25 1384.222656 498.199219 C 1384.433594 498.152344 1384.640625 498.09375 1384.84375 498.019531 C 1385.046875 497.945312 1385.246094 497.859375 1385.4375 497.761719 C 1385.628906 497.660156 1385.816406 497.550781 1385.996094 497.429688 C 1386.171875 497.308594 1386.34375 497.175781 1386.503906 497.03125 C 1386.667969 496.886719 1386.820312 496.734375 1386.960938 496.570312 C 1387.105469 496.410156 1387.238281 496.238281 1387.359375 496.058594 C 1387.480469 495.878906 1387.589844 495.695312 1387.6875 495.5 C 1387.785156 495.308594 1387.871094 495.109375 1387.941406 494.90625 C 1388.015625 494.703125 1388.074219 494.496094 1388.121094 494.285156 C 1388.167969 494.074219 1388.203125 493.859375 1388.222656 493.644531 C 1388.242188 493.429688 1388.25 493.214844 1388.242188 492.996094 C 1388.234375 492.78125 1388.214844 492.566406 1388.179688 492.351562 C 1388.144531 492.140625 1388.097656 491.929688 1388.039062 491.722656 C 1387.976562 491.515625 1387.902344 491.3125 1387.816406 491.113281 C 1387.730469 490.914062 1387.632812 490.722656 1387.523438 490.535156 C 1387.414062 490.351562 1387.292969 490.171875 1387.160156 490 C 1387.027344 489.832031 1386.882812 489.667969 1386.730469 489.515625 C 1386.578125 489.363281 1386.414062 489.21875 1386.242188 489.085938 C 1386.074219 488.957031 1385.894531 488.832031 1385.707031 488.722656 C 1385.523438 488.613281 1385.328125 488.515625 1385.132812 488.429688 C 1384.933594 488.34375 1384.730469 488.269531 1384.523438 488.210938 C 1384.3125 488.152344 1384.105469 488.105469 1383.890625 488.070312 C 1383.675781 488.035156 1383.460938 488.015625 1383.246094 488.007812 C 1383.027344 488.003906 1382.8125 488.007812 1382.597656 488.03125 C 1382.382812 488.050781 1382.167969 488.082031 1381.957031 488.128906 C 1381.746094 488.175781 1381.539062 488.238281 1381.335938 488.3125 C 1381.132812 488.382812 1380.933594 488.46875 1380.742188 488.566406 C 1380.550781 488.664062 1380.363281 488.777344 1380.183594 488.898438 C 1380.007812 489.019531 1379.835938 489.152344 1379.671875 489.292969 C 1379.511719 489.4375 1379.359375 489.589844 1379.214844 489.75 C 1379.070312 489.914062 1378.9375 490.082031 1378.816406 490.261719 C 1378.695312 490.441406 1378.585938 490.625 1378.488281 490.820312 C 1378.390625 491.011719 1378.304688 491.210938 1378.230469 491.414062 C 1378.15625 491.617188 1378.09375 491.824219 1378.046875 492.035156 C 1378 492.246094 1377.964844 492.457031 1377.945312 492.675781 C 1377.925781 492.890625 1377.917969 493.105469 1377.925781 493.320312 C 1377.929688 493.539062 1377.949219 493.753906 1377.984375 493.964844 C 1378.019531 494.179688 1378.066406 494.390625 1378.125 494.597656 C 1378.183594 494.804688 1378.257812 495.007812 1378.34375 495.207031 C 1378.429688 495.40625 1378.527344 495.597656 1378.636719 495.785156 C 1378.746094 495.972656 1378.867188 496.148438 1379 496.320312 L 1357.140625 518.179688 L 1327.851562 518.179688 L 1302.890625 543.140625 L 1304.761719 543.140625 Z M 1380.371094 490.457031 C 1380.730469 490.097656 1381.144531 489.820312 1381.617188 489.625 C 1382.085938 489.429688 1382.578125 489.332031 1383.085938 489.332031 C 1383.59375 489.332031 1384.082031 489.429688 1384.554688 489.625 C 1385.023438 489.816406 1385.441406 490.09375 1385.800781 490.457031 C 1386.160156 490.816406 1386.4375 491.230469 1386.632812 491.699219 C 1386.828125 492.171875 1386.921875 492.660156 1386.921875 493.167969 C 1386.921875 493.679688 1386.828125 494.167969 1386.632812 494.636719 C 1386.4375 495.109375 1386.160156 495.523438 1385.800781 495.882812 C 1385.441406 496.242188 1385.023438 496.519531 1384.554688 496.714844 C 1384.082031 496.910156 1383.59375 497.007812 1383.085938 497.007812 C 1382.578125 497.007812 1382.085938 496.910156 1381.617188 496.714844 C 1381.144531 496.519531 1380.730469 496.242188 1380.371094 495.882812 C 1380.011719 495.523438 1379.730469 495.109375 1379.535156 494.636719 C 1379.339844 494.167969 1379.242188 493.679688 1379.242188 493.167969 C 1379.242188 492.660156 1379.339844 492.171875 1379.535156 491.699219 C 1379.730469 491.230469 1380.011719 490.816406 1380.371094 490.457031 Z M 1380.371094 490.457031 " fill-opacity="1" fill-rule="nonzero"/></g><g clip-path="url(#5ed0623b65)"><path fill="#d9d9d9" d="M 1275.84375 543.140625 L 1318.40625 500.582031 L 1341.6875 500.582031 C 1341.714844 500.796875 1341.753906 501.007812 1341.808594 501.21875 C 1341.863281 501.425781 1341.929688 501.632812 1342.011719 501.832031 C 1342.089844 502.035156 1342.183594 502.230469 1342.289062 502.417969 C 1342.394531 502.609375 1342.507812 502.789062 1342.636719 502.964844 C 1342.765625 503.140625 1342.902344 503.304688 1343.050781 503.460938 C 1343.199219 503.621094 1343.355469 503.765625 1343.523438 503.90625 C 1343.691406 504.042969 1343.863281 504.167969 1344.046875 504.285156 C 1344.230469 504.398438 1344.417969 504.503906 1344.617188 504.59375 C 1344.8125 504.6875 1345.011719 504.765625 1345.21875 504.832031 C 1345.425781 504.898438 1345.632812 504.953125 1345.84375 504.992188 C 1346.058594 505.03125 1346.273438 505.058594 1346.488281 505.070312 C 1346.703125 505.085938 1346.917969 505.085938 1347.136719 505.070312 C 1347.351562 505.058594 1347.566406 505.03125 1347.777344 504.988281 C 1347.992188 504.949219 1348.199219 504.894531 1348.40625 504.828125 C 1348.609375 504.761719 1348.8125 504.679688 1349.007812 504.589844 C 1349.203125 504.496094 1349.390625 504.390625 1349.574219 504.277344 C 1349.757812 504.160156 1349.929688 504.03125 1350.097656 503.894531 C 1350.265625 503.757812 1350.421875 503.609375 1350.570312 503.449219 C 1350.71875 503.292969 1350.855469 503.125 1350.980469 502.953125 C 1351.109375 502.777344 1351.222656 502.59375 1351.328125 502.40625 C 1351.433594 502.214844 1351.523438 502.019531 1351.601562 501.820312 C 1351.683594 501.617188 1351.75 501.414062 1351.804688 501.203125 C 1351.855469 500.992188 1351.898438 500.78125 1351.925781 500.566406 C 1351.953125 500.351562 1351.964844 500.136719 1351.964844 499.921875 C 1351.964844 499.703125 1351.953125 499.488281 1351.925781 499.273438 C 1351.898438 499.058594 1351.855469 498.847656 1351.804688 498.636719 C 1351.75 498.429688 1351.683594 498.222656 1351.601562 498.023438 C 1351.523438 497.820312 1351.433594 497.625 1351.328125 497.4375 C 1351.222656 497.246094 1351.109375 497.066406 1350.980469 496.890625 C 1350.855469 496.714844 1350.71875 496.546875 1350.570312 496.390625 C 1350.421875 496.234375 1350.265625 496.085938 1350.097656 495.945312 C 1349.929688 495.808594 1349.757812 495.683594 1349.574219 495.566406 C 1349.390625 495.449219 1349.203125 495.347656 1349.007812 495.253906 C 1348.8125 495.160156 1348.609375 495.082031 1348.40625 495.015625 C 1348.199219 494.949219 1347.992188 494.894531 1347.777344 494.851562 C 1347.566406 494.8125 1347.351562 494.785156 1347.136719 494.769531 C 1346.917969 494.757812 1346.703125 494.757812 1346.488281 494.769531 C 1346.273438 494.78125 1346.058594 494.808594 1345.84375 494.851562 C 1345.632812 494.890625 1345.425781 494.941406 1345.21875 495.007812 C 1345.011719 495.074219 1344.8125 495.15625 1344.617188 495.246094 C 1344.417969 495.339844 1344.230469 495.441406 1344.046875 495.558594 C 1343.863281 495.671875 1343.691406 495.800781 1343.523438 495.9375 C 1343.355469 496.074219 1343.199219 496.222656 1343.050781 496.378906 C 1342.902344 496.535156 1342.765625 496.703125 1342.636719 496.878906 C 1342.507812 497.050781 1342.390625 497.234375 1342.289062 497.421875 C 1342.183594 497.613281 1342.089844 497.808594 1342.011719 498.007812 C 1341.929688 498.210938 1341.863281 498.414062 1341.808594 498.625 C 1341.753906 498.832031 1341.714844 499.042969 1341.6875 499.257812 L 1317.851562 499.257812 L 1273.972656 543.140625 Z M 1346.804688 496.082031 C 1347.3125 496.082031 1347.804688 496.179688 1348.273438 496.375 C 1348.742188 496.570312 1349.15625 496.847656 1349.519531 497.207031 C 1349.878906 497.566406 1350.15625 497.980469 1350.351562 498.449219 C 1350.542969 498.921875 1350.640625 499.410156 1350.640625 499.917969 C 1350.640625 500.429688 1350.542969 500.917969 1350.351562 501.386719 C 1350.15625 501.859375 1349.878906 502.273438 1349.519531 502.632812 C 1349.15625 502.992188 1348.742188 503.269531 1348.273438 503.464844 C 1347.804688 503.660156 1347.3125 503.757812 1346.804688 503.757812 C 1346.296875 503.757812 1345.804688 503.660156 1345.335938 503.464844 C 1344.867188 503.269531 1344.449219 502.992188 1344.089844 502.632812 C 1343.730469 502.273438 1343.453125 501.859375 1343.257812 501.386719 C 1343.0625 500.917969 1342.964844 500.429688 1342.964844 499.917969 C 1342.96875 499.410156 1343.0625 498.921875 1343.257812 498.453125 C 1343.453125 497.980469 1343.730469 497.566406 1344.089844 497.207031 C 1344.449219 496.847656 1344.863281 496.570312 1345.335938 496.375 C 1345.804688 496.179688 1346.292969 496.082031 1346.800781 496.082031 Z M 1346.804688 496.082031 " fill-opacity="1" fill-rule="nonzero"/></g><g clip-path="url(#b26771e8e1)"><path fill="#d9d9d9" d="M 1461.109375 409.382812 L 1432.773438 437.71875 C 1432.605469 437.585938 1432.425781 437.464844 1432.238281 437.355469 C 1432.050781 437.246094 1431.859375 437.148438 1431.660156 437.066406 C 1431.460938 436.980469 1431.257812 436.90625 1431.050781 436.847656 C 1430.84375 436.789062 1430.632812 436.742188 1430.417969 436.707031 C 1430.203125 436.675781 1429.988281 436.652344 1429.773438 436.648438 C 1429.558594 436.640625 1429.34375 436.648438 1429.125 436.667969 C 1428.910156 436.691406 1428.699219 436.726562 1428.488281 436.773438 C 1428.277344 436.820312 1428.070312 436.878906 1427.867188 436.953125 C 1427.664062 437.027344 1427.464844 437.113281 1427.273438 437.210938 C 1427.078125 437.3125 1426.894531 437.421875 1426.714844 437.542969 C 1426.535156 437.664062 1426.367188 437.796875 1426.203125 437.941406 C 1426.042969 438.085938 1425.890625 438.238281 1425.746094 438.398438 C 1425.605469 438.5625 1425.472656 438.734375 1425.351562 438.910156 C 1425.230469 439.089844 1425.121094 439.277344 1425.023438 439.46875 C 1424.925781 439.660156 1424.839844 439.859375 1424.765625 440.0625 C 1424.691406 440.265625 1424.632812 440.476562 1424.585938 440.6875 C 1424.539062 440.898438 1424.503906 441.109375 1424.484375 441.324219 C 1424.464844 441.539062 1424.457031 441.757812 1424.464844 441.972656 C 1424.472656 442.1875 1424.492188 442.402344 1424.527344 442.617188 C 1424.5625 442.832031 1424.609375 443.042969 1424.667969 443.25 C 1424.730469 443.457031 1424.800781 443.660156 1424.886719 443.859375 C 1424.972656 444.054688 1425.070312 444.25 1425.183594 444.433594 C 1425.292969 444.621094 1425.414062 444.800781 1425.546875 444.96875 C 1425.679688 445.140625 1425.820312 445.304688 1425.972656 445.457031 C 1426.128906 445.609375 1426.289062 445.75 1426.460938 445.882812 C 1426.632812 446.015625 1426.808594 446.136719 1426.996094 446.25 C 1427.183594 446.359375 1427.375 446.457031 1427.574219 446.542969 C 1427.769531 446.628906 1427.972656 446.703125 1428.179688 446.761719 C 1428.390625 446.824219 1428.601562 446.871094 1428.8125 446.902344 C 1429.027344 446.9375 1429.242188 446.957031 1429.457031 446.964844 C 1429.675781 446.972656 1429.890625 446.964844 1430.105469 446.945312 C 1430.320312 446.925781 1430.535156 446.890625 1430.746094 446.84375 C 1430.957031 446.796875 1431.164062 446.738281 1431.367188 446.664062 C 1431.570312 446.589844 1431.769531 446.503906 1431.960938 446.40625 C 1432.152344 446.308594 1432.339844 446.199219 1432.519531 446.078125 C 1432.699219 445.957031 1432.867188 445.824219 1433.03125 445.683594 C 1433.195312 445.539062 1433.347656 445.386719 1433.488281 445.226562 C 1433.632812 445.0625 1433.765625 444.894531 1433.886719 444.714844 C 1434.007812 444.535156 1434.121094 444.351562 1434.21875 444.15625 C 1434.316406 443.964844 1434.402344 443.765625 1434.476562 443.5625 C 1434.550781 443.359375 1434.609375 443.152344 1434.65625 442.941406 C 1434.707031 442.730469 1434.738281 442.519531 1434.761719 442.304688 C 1434.78125 442.089844 1434.789062 441.871094 1434.78125 441.65625 C 1434.777344 441.441406 1434.757812 441.226562 1434.722656 441.011719 C 1434.691406 440.796875 1434.644531 440.585938 1434.582031 440.378906 C 1434.523438 440.171875 1434.449219 439.96875 1434.367188 439.769531 C 1434.28125 439.570312 1434.183594 439.378906 1434.074219 439.191406 C 1433.964844 439.003906 1433.84375 438.828125 1433.710938 438.65625 L 1461.109375 411.257812 Z M 1432.339844 444.523438 C 1431.980469 444.882812 1431.5625 445.160156 1431.09375 445.355469 C 1430.625 445.546875 1430.132812 445.644531 1429.625 445.644531 C 1429.117188 445.644531 1428.625 445.550781 1428.15625 445.355469 C 1427.6875 445.160156 1427.269531 444.882812 1426.910156 444.523438 C 1426.550781 444.164062 1426.273438 443.746094 1426.078125 443.277344 C 1425.882812 442.808594 1425.785156 442.316406 1425.785156 441.808594 C 1425.785156 441.300781 1425.882812 440.808594 1426.078125 440.339844 C 1426.273438 439.871094 1426.550781 439.453125 1426.910156 439.09375 C 1427.269531 438.734375 1427.6875 438.457031 1428.15625 438.261719 C 1428.625 438.066406 1429.117188 437.972656 1429.625 437.972656 C 1430.132812 437.972656 1430.625 438.070312 1431.09375 438.261719 C 1431.5625 438.457031 1431.980469 438.734375 1432.339844 439.097656 C 1432.699219 439.453125 1432.980469 439.867188 1433.175781 440.339844 C 1433.371094 440.808594 1433.46875 441.300781 1433.46875 441.808594 C 1433.46875 442.316406 1433.371094 442.808594 1433.175781 443.277344 C 1432.980469 443.75 1432.699219 444.164062 1432.339844 444.523438 Z M 1432.339844 444.523438 " fill-opacity="1" fill-rule="nonzero"/></g><path fill="#d9d9d9" d="M 1403.261719 473.628906 C 1403.773438 473.628906 1404.28125 473.601562 1404.789062 473.542969 C 1405.292969 473.484375 1405.796875 473.394531 1406.292969 473.28125 C 1406.789062 473.164062 1407.277344 473.019531 1407.757812 472.847656 C 1408.238281 472.675781 1408.707031 472.476562 1409.164062 472.25 C 1409.621094 472.023438 1410.066406 471.773438 1410.496094 471.496094 C 1410.921875 471.21875 1411.335938 470.917969 1411.730469 470.597656 C 1412.121094 470.273438 1412.496094 469.925781 1412.851562 469.558594 C 1413.207031 469.191406 1413.539062 468.808594 1413.847656 468.402344 C 1414.160156 467.996094 1414.445312 467.574219 1414.707031 467.136719 C 1414.96875 466.699219 1415.207031 466.25 1415.417969 465.785156 C 1415.625 465.320312 1415.808594 464.84375 1415.964844 464.359375 C 1416.121094 463.871094 1416.25 463.378906 1416.347656 462.878906 C 1416.445312 462.378906 1416.515625 461.875 1416.558594 461.367188 C 1416.601562 460.855469 1416.613281 460.347656 1416.59375 459.839844 C 1416.578125 459.328125 1416.53125 458.820312 1416.457031 458.316406 C 1416.382812 457.8125 1416.277344 457.3125 1416.144531 456.820312 C 1416.015625 456.328125 1415.855469 455.84375 1415.667969 455.371094 C 1415.476562 454.894531 1415.265625 454.433594 1415.023438 453.984375 C 1414.78125 453.535156 1414.515625 453.097656 1414.226562 452.679688 C 1413.9375 452.261719 1413.621094 451.859375 1413.285156 451.476562 C 1412.949219 451.09375 1412.589844 450.730469 1412.214844 450.386719 C 1411.835938 450.042969 1411.4375 449.726562 1411.023438 449.429688 C 1410.609375 449.132812 1410.179688 448.859375 1409.734375 448.609375 C 1409.285156 448.363281 1408.828125 448.140625 1408.355469 447.949219 C 1407.886719 447.753906 1407.402344 447.585938 1406.914062 447.445312 C 1406.421875 447.304688 1405.925781 447.195312 1405.421875 447.109375 C 1404.917969 447.027344 1404.414062 446.972656 1403.902344 446.949219 C 1403.394531 446.925781 1402.882812 446.929688 1402.375 446.964844 C 1401.867188 446.996094 1401.359375 447.058594 1400.859375 447.152344 C 1400.355469 447.242188 1399.863281 447.363281 1399.375 447.511719 C 1398.886719 447.660156 1398.40625 447.835938 1397.9375 448.039062 C 1397.472656 448.242188 1397.015625 448.46875 1396.574219 448.726562 C 1396.132812 448.980469 1395.707031 449.261719 1395.296875 449.566406 C 1394.886719 449.867188 1394.496094 450.195312 1394.125 450.542969 C 1393.753906 450.894531 1393.402344 451.261719 1393.070312 451.652344 C 1392.742188 452.039062 1392.433594 452.449219 1392.152344 452.871094 C 1391.867188 453.296875 1391.609375 453.734375 1391.378906 454.1875 C 1391.144531 454.644531 1390.9375 455.109375 1390.757812 455.585938 C 1390.582031 456.0625 1390.429688 456.550781 1390.304688 457.046875 C 1390.179688 457.539062 1390.085938 458.039062 1390.019531 458.546875 C 1389.953125 459.050781 1389.917969 459.558594 1389.90625 460.070312 C 1389.898438 460.582031 1389.921875 461.089844 1389.972656 461.597656 C 1390.023438 462.105469 1390.101562 462.609375 1390.207031 463.105469 C 1390.316406 463.605469 1390.453125 464.097656 1390.617188 464.578125 C 1390.78125 465.0625 1390.972656 465.535156 1391.191406 465.996094 C 1391.410156 466.457031 1391.652344 466.902344 1391.921875 467.335938 C 1392.191406 467.769531 1392.484375 468.1875 1392.804688 468.585938 C 1393.121094 468.984375 1393.460938 469.363281 1393.820312 469.726562 C 1395.070312 470.976562 1396.515625 471.941406 1398.152344 472.621094 C 1399.789062 473.296875 1401.492188 473.632812 1403.261719 473.628906 Z M 1394.757812 451.777344 C 1395.316406 451.21875 1395.921875 450.71875 1396.578125 450.28125 C 1397.234375 449.839844 1397.929688 449.46875 1398.660156 449.167969 C 1399.390625 448.867188 1400.140625 448.636719 1400.914062 448.484375 C 1401.691406 448.328125 1402.472656 448.253906 1403.261719 448.253906 C 1404.050781 448.253906 1404.835938 448.328125 1405.609375 448.484375 C 1406.382812 448.636719 1407.136719 448.867188 1407.867188 449.167969 C 1408.597656 449.46875 1409.289062 449.839844 1409.945312 450.28125 C 1410.601562 450.71875 1411.210938 451.21875 1411.769531 451.777344 C 1412.328125 452.335938 1412.828125 452.941406 1413.265625 453.597656 C 1413.703125 454.257812 1414.074219 454.949219 1414.378906 455.679688 C 1414.679688 456.410156 1414.90625 457.160156 1415.0625 457.9375 C 1415.214844 458.710938 1415.292969 459.492188 1415.292969 460.28125 C 1415.292969 461.074219 1415.214844 461.855469 1415.0625 462.628906 C 1414.90625 463.40625 1414.679688 464.15625 1414.378906 464.886719 C 1414.074219 465.617188 1413.703125 466.308594 1413.265625 466.964844 C 1412.828125 467.625 1412.328125 468.230469 1411.769531 468.789062 C 1411.210938 469.347656 1410.601562 469.847656 1409.945312 470.285156 C 1409.289062 470.722656 1408.597656 471.09375 1407.867188 471.398438 C 1407.136719 471.699219 1406.382812 471.929688 1405.609375 472.082031 C 1404.835938 472.234375 1404.050781 472.3125 1403.261719 472.3125 C 1402.472656 472.3125 1401.691406 472.234375 1400.914062 472.082031 C 1400.140625 471.929688 1399.390625 471.699219 1398.660156 471.398438 C 1397.929688 471.09375 1397.234375 470.726562 1396.578125 470.285156 C 1395.921875 469.847656 1395.316406 469.347656 1394.757812 468.789062 C 1394.195312 468.234375 1393.695312 467.625 1393.253906 466.96875 C 1392.8125 466.3125 1392.441406 465.621094 1392.136719 464.890625 C 1391.832031 464.160156 1391.601562 463.40625 1391.449219 462.632812 C 1391.292969 461.855469 1391.214844 461.074219 1391.214844 460.28125 C 1391.214844 459.492188 1391.292969 458.710938 1391.449219 457.933594 C 1391.601562 457.160156 1391.832031 456.40625 1392.136719 455.675781 C 1392.441406 454.945312 1392.8125 454.253906 1393.253906 453.597656 C 1393.695312 452.941406 1394.195312 452.332031 1394.757812 451.777344 Z M 1394.757812 451.777344 " fill-opacity="1" fill-rule="nonzero"/><path fill="#d9d9d9" d="M 58.976562 78.78125 C 58.703125 79.058594 58.457031 79.355469 58.242188 79.679688 C 58.023438 80.003906 57.84375 80.34375 57.695312 80.703125 C 57.546875 81.0625 57.433594 81.429688 57.359375 81.8125 C 57.28125 82.191406 57.242188 82.578125 57.242188 82.964844 C 57.242188 83.355469 57.28125 83.738281 57.359375 84.121094 C 57.433594 84.5 57.546875 84.871094 57.695312 85.230469 C 57.84375 85.589844 58.023438 85.929688 58.242188 86.25 C 58.457031 86.574219 58.703125 86.875 58.976562 87.148438 C 59.25 87.421875 59.550781 87.667969 59.871094 87.882812 C 60.195312 88.097656 60.535156 88.28125 60.894531 88.429688 C 61.253906 88.578125 61.625 88.691406 62.003906 88.765625 C 62.386719 88.84375 62.769531 88.878906 63.160156 88.878906 C 63.546875 88.878906 63.933594 88.84375 64.3125 88.765625 C 64.695312 88.691406 65.0625 88.578125 65.421875 88.429688 C 65.78125 88.28125 66.121094 88.097656 66.445312 87.882812 C 66.769531 87.667969 67.066406 87.421875 67.339844 87.148438 C 67.617188 86.875 67.863281 86.574219 68.078125 86.25 C 68.292969 85.929688 68.476562 85.589844 68.625 85.230469 C 68.773438 84.871094 68.886719 84.5 68.960938 84.121094 C 69.035156 83.738281 69.074219 83.355469 69.074219 82.964844 C 69.074219 82.578125 69.035156 82.191406 68.960938 81.8125 C 68.886719 81.429688 68.773438 81.0625 68.625 80.703125 C 68.476562 80.34375 68.292969 80.003906 68.078125 79.679688 C 67.863281 79.355469 67.617188 79.058594 67.34375 78.78125 C 67.066406 78.507812 66.769531 78.261719 66.445312 78.046875 C 66.121094 77.832031 65.78125 77.648438 65.421875 77.5 C 65.0625 77.351562 64.695312 77.238281 64.3125 77.164062 C 63.933594 77.089844 63.546875 77.050781 63.160156 77.050781 C 62.769531 77.050781 62.386719 77.089844 62.003906 77.164062 C 61.625 77.238281 61.253906 77.351562 60.894531 77.5 C 60.535156 77.648438 60.195312 77.832031 59.871094 78.046875 C 59.550781 78.261719 59.25 78.507812 58.976562 78.78125 Z M 58.976562 78.78125 " fill-opacity="1" fill-rule="nonzero"/><g clip-path="url(#6fa1d95724)"><path fill="#d9d9d9" d="M 5.3125 162.421875 L 31.320312 136.410156 C 31.492188 136.542969 31.671875 136.660156 31.859375 136.769531 C 32.042969 136.878906 32.234375 136.976562 32.433594 137.0625 C 32.632812 137.148438 32.835938 137.21875 33.042969 137.28125 C 33.25 137.339844 33.460938 137.386719 33.675781 137.417969 C 33.890625 137.453125 34.105469 137.472656 34.320312 137.476562 C 34.535156 137.484375 34.75 137.476562 34.964844 137.457031 C 35.179688 137.433594 35.394531 137.398438 35.605469 137.351562 C 35.816406 137.304688 36.023438 137.242188 36.222656 137.171875 C 36.425781 137.097656 36.625 137.011719 36.816406 136.910156 C 37.007812 136.8125 37.195312 136.703125 37.375 136.582031 C 37.550781 136.460938 37.722656 136.328125 37.882812 136.183594 C 38.042969 136.039062 38.195312 135.886719 38.339844 135.726562 C 38.480469 135.5625 38.613281 135.390625 38.734375 135.214844 C 38.855469 135.035156 38.964844 134.847656 39.0625 134.65625 C 39.160156 134.464844 39.246094 134.265625 39.316406 134.0625 C 39.390625 133.859375 39.449219 133.652344 39.496094 133.441406 C 39.542969 133.230469 39.578125 133.015625 39.597656 132.800781 C 39.617188 132.585938 39.625 132.371094 39.617188 132.15625 C 39.609375 131.941406 39.589844 131.726562 39.554688 131.511719 C 39.519531 131.300781 39.472656 131.089844 39.414062 130.882812 C 39.351562 130.675781 39.28125 130.472656 39.195312 130.273438 C 39.109375 130.074219 39.011719 129.882812 38.898438 129.695312 C 38.789062 129.511719 38.667969 129.332031 38.535156 129.164062 C 38.402344 128.992188 38.261719 128.832031 38.109375 128.679688 C 37.953125 128.527344 37.792969 128.382812 37.621094 128.25 C 37.453125 128.117188 37.273438 127.996094 37.085938 127.886719 C 36.902344 127.777344 36.710938 127.679688 36.511719 127.59375 C 36.3125 127.507812 36.109375 127.433594 35.902344 127.375 C 35.695312 127.316406 35.484375 127.269531 35.269531 127.234375 C 35.058594 127.199219 34.84375 127.179688 34.628906 127.171875 C 34.410156 127.167969 34.195312 127.171875 33.980469 127.195312 C 33.765625 127.214844 33.554688 127.246094 33.34375 127.292969 C 33.132812 127.34375 32.925781 127.402344 32.722656 127.476562 C 32.519531 127.546875 32.320312 127.632812 32.128906 127.730469 C 31.933594 127.828125 31.75 127.9375 31.570312 128.058594 C 31.390625 128.183594 31.222656 128.3125 31.058594 128.457031 C 30.898438 128.597656 30.746094 128.75 30.601562 128.914062 C 30.460938 129.074219 30.328125 129.246094 30.207031 129.421875 C 30.082031 129.601562 29.972656 129.789062 29.875 129.980469 C 29.777344 130.171875 29.691406 130.371094 29.617188 130.574219 C 29.542969 130.777344 29.484375 130.984375 29.4375 131.195312 C 29.390625 131.40625 29.355469 131.617188 29.335938 131.832031 C 29.3125 132.046875 29.308594 132.261719 29.3125 132.480469 C 29.320312 132.695312 29.339844 132.910156 29.375 133.121094 C 29.40625 133.335938 29.453125 133.546875 29.511719 133.753906 C 29.574219 133.960938 29.644531 134.164062 29.730469 134.363281 C 29.816406 134.5625 29.914062 134.753906 30.023438 134.941406 C 30.132812 135.125 30.253906 135.304688 30.386719 135.476562 L 5.3125 160.550781 Z M 31.757812 129.613281 C 31.964844 129.402344 32.195312 129.222656 32.445312 129.066406 C 32.695312 128.910156 32.960938 128.785156 33.238281 128.691406 C 33.515625 128.597656 33.800781 128.535156 34.09375 128.503906 C 34.386719 128.476562 34.679688 128.480469 34.972656 128.519531 C 35.265625 128.558594 35.546875 128.628906 35.824219 128.734375 C 36.097656 128.835938 36.359375 128.96875 36.605469 129.132812 C 36.847656 129.296875 37.070312 129.484375 37.273438 129.699219 C 37.472656 129.914062 37.648438 130.148438 37.796875 130.40625 C 37.941406 130.660156 38.058594 130.929688 38.144531 131.210938 C 38.230469 131.492188 38.28125 131.777344 38.300781 132.074219 C 38.320312 132.367188 38.304688 132.660156 38.257812 132.949219 C 38.210938 133.238281 38.128906 133.519531 38.019531 133.792969 C 37.90625 134.0625 37.761719 134.320312 37.59375 134.558594 C 37.421875 134.796875 37.222656 135.015625 37.003906 135.210938 C 36.78125 135.402344 36.542969 135.570312 36.28125 135.707031 C 36.023438 135.847656 35.75 135.953125 35.464844 136.03125 C 35.183594 136.109375 34.894531 136.152344 34.597656 136.160156 C 34.304688 136.171875 34.011719 136.144531 33.722656 136.089844 C 33.4375 136.03125 33.15625 135.941406 32.890625 135.820312 C 32.621094 135.699219 32.371094 135.550781 32.136719 135.371094 C 31.902344 135.191406 31.691406 134.988281 31.507812 134.761719 C 31.320312 134.53125 31.160156 134.285156 31.03125 134.023438 C 30.902344 133.757812 30.800781 133.484375 30.734375 133.195312 C 30.667969 132.910156 30.632812 132.621094 30.632812 132.324219 C 30.632812 131.265625 31.007812 130.359375 31.757812 129.613281 Z M 31.757812 129.613281 " fill-opacity="1" fill-rule="nonzero"/></g><g clip-path="url(#6573cd3559)"><path fill="#d9d9d9" d="M 5.3125 77.535156 L 67.859375 14.988281 L 86.023438 14.988281 C 86.050781 15.203125 86.09375 15.414062 86.148438 15.621094 C 86.203125 15.832031 86.269531 16.039062 86.347656 16.238281 C 86.429688 16.4375 86.523438 16.632812 86.625 16.824219 C 86.730469 17.011719 86.847656 17.195312 86.976562 17.371094 C 87.101562 17.542969 87.242188 17.710938 87.390625 17.867188 C 87.539062 18.023438 87.695312 18.171875 87.863281 18.308594 C 88.027344 18.445312 88.203125 18.574219 88.386719 18.6875 C 88.570312 18.804688 88.757812 18.90625 88.953125 19 C 89.152344 19.089844 89.351562 19.171875 89.558594 19.238281 C 89.761719 19.304688 89.972656 19.355469 90.183594 19.398438 C 90.398438 19.4375 90.609375 19.464844 90.828125 19.476562 C 91.042969 19.488281 91.257812 19.488281 91.472656 19.476562 C 91.691406 19.460938 91.90625 19.433594 92.117188 19.394531 C 92.328125 19.351562 92.539062 19.300781 92.742188 19.230469 C 92.949219 19.164062 93.148438 19.085938 93.34375 18.992188 C 93.542969 18.902344 93.730469 18.796875 93.914062 18.679688 C 94.09375 18.5625 94.269531 18.4375 94.4375 18.300781 C 94.601562 18.160156 94.761719 18.011719 94.90625 17.855469 C 95.054688 17.699219 95.191406 17.53125 95.320312 17.355469 C 95.445312 17.179688 95.5625 17 95.667969 16.808594 C 95.769531 16.621094 95.863281 16.425781 95.941406 16.222656 C 96.023438 16.023438 96.089844 15.816406 96.140625 15.609375 C 96.195312 15.398438 96.234375 15.1875 96.261719 14.972656 C 96.289062 14.757812 96.304688 14.542969 96.304688 14.324219 C 96.304688 14.109375 96.289062 13.894531 96.261719 13.679688 C 96.234375 13.464844 96.195312 13.253906 96.140625 13.042969 C 96.089844 12.832031 96.023438 12.628906 95.941406 12.425781 C 95.863281 12.226562 95.769531 12.03125 95.667969 11.839844 C 95.5625 11.652344 95.445312 11.46875 95.320312 11.292969 C 95.191406 11.121094 95.054688 10.953125 94.90625 10.796875 C 94.761719 10.636719 94.601562 10.488281 94.4375 10.351562 C 94.269531 10.214844 94.09375 10.085938 93.914062 9.972656 C 93.730469 9.855469 93.542969 9.75 93.34375 9.660156 C 93.148438 9.566406 92.949219 9.484375 92.742188 9.417969 C 92.539062 9.351562 92.328125 9.296875 92.117188 9.257812 C 91.90625 9.214844 91.691406 9.1875 91.476562 9.175781 C 91.257812 9.160156 91.042969 9.160156 90.828125 9.175781 C 90.609375 9.1875 90.398438 9.214844 90.183594 9.253906 C 89.972656 9.292969 89.761719 9.347656 89.558594 9.414062 C 89.351562 9.480469 89.152344 9.558594 88.953125 9.652344 C 88.757812 9.742188 88.570312 9.847656 88.386719 9.960938 C 88.203125 10.078125 88.027344 10.203125 87.863281 10.34375 C 87.695312 10.480469 87.539062 10.625 87.390625 10.785156 C 87.242188 10.941406 87.101562 11.105469 86.976562 11.28125 C 86.847656 11.457031 86.730469 11.636719 86.625 11.828125 C 86.523438 12.015625 86.429688 12.210938 86.347656 12.414062 C 86.269531 12.613281 86.203125 12.820312 86.148438 13.027344 C 86.09375 13.238281 86.050781 13.449219 86.023438 13.664062 L 67.308594 13.664062 L 5.3125 75.664062 Z M 91.144531 10.488281 C 91.652344 10.488281 92.140625 10.585938 92.613281 10.777344 C 93.082031 10.972656 93.496094 11.25 93.855469 11.609375 C 94.214844 11.96875 94.492188 12.386719 94.6875 12.855469 C 94.882812 13.324219 94.980469 13.816406 94.980469 14.324219 C 94.980469 14.832031 94.882812 15.324219 94.6875 15.792969 C 94.492188 16.261719 94.214844 16.679688 93.855469 17.039062 C 93.496094 17.398438 93.082031 17.675781 92.613281 17.871094 C 92.140625 18.066406 91.652344 18.160156 91.144531 18.160156 C 90.632812 18.160156 90.144531 18.066406 89.675781 17.871094 C 89.203125 17.675781 88.789062 17.398438 88.429688 17.039062 C 88.070312 16.679688 87.792969 16.261719 87.597656 15.792969 C 87.402344 15.324219 87.304688 14.832031 87.304688 14.324219 C 87.304688 13.816406 87.402344 13.324219 87.597656 12.855469 C 87.792969 12.386719 88.070312 11.96875 88.429688 11.609375 C 88.789062 11.25 89.203125 10.972656 89.675781 10.777344 C 90.144531 10.585938 90.632812 10.488281 91.144531 10.488281 Z M 91.144531 10.488281 " fill-opacity="1" fill-rule="nonzero"/></g><g clip-path="url(#f36f0ae617)"><path fill="#d9d9d9" d="M 18.65625 39.613281 C 19.082031 39.613281 19.503906 39.554688 19.917969 39.4375 C 20.328125 39.316406 20.71875 39.144531 21.082031 38.921875 C 21.445312 38.695312 21.773438 38.421875 22.0625 38.105469 C 22.351562 37.789062 22.59375 37.441406 22.785156 37.058594 C 22.976562 36.671875 23.113281 36.269531 23.191406 35.851562 C 23.273438 35.429688 23.296875 35.003906 23.257812 34.578125 C 23.21875 34.148438 23.125 33.734375 22.972656 33.335938 C 22.820312 32.933594 22.617188 32.5625 22.359375 32.21875 L 54.472656 0.109375 L 52.597656 0.109375 L 21.425781 31.28125 C 21.128906 31.0625 20.816406 30.878906 20.476562 30.734375 C 20.140625 30.589844 19.792969 30.484375 19.429688 30.421875 C 19.066406 30.359375 18.703125 30.34375 18.335938 30.367188 C 17.972656 30.390625 17.613281 30.457031 17.261719 30.566406 C 16.910156 30.675781 16.578125 30.828125 16.265625 31.015625 C 15.949219 31.203125 15.660156 31.425781 15.398438 31.683594 C 15.136719 31.941406 14.910156 32.226562 14.714844 32.539062 C 14.519531 32.847656 14.367188 33.179688 14.25 33.527344 C 14.132812 33.875 14.0625 34.234375 14.03125 34.597656 C 14 34.964844 14.011719 35.328125 14.066406 35.691406 C 14.125 36.054688 14.222656 36.40625 14.359375 36.746094 C 14.5 37.085938 14.675781 37.402344 14.890625 37.703125 C 15.105469 38 15.355469 38.265625 15.632812 38.507812 C 15.910156 38.746094 16.214844 38.949219 16.542969 39.113281 C 16.871094 39.28125 17.210938 39.40625 17.566406 39.492188 C 17.925781 39.578125 18.289062 39.621094 18.65625 39.621094 Z M 16.320312 32.652344 C 16.5 32.472656 16.695312 32.316406 16.914062 32.179688 C 17.128906 32.046875 17.355469 31.941406 17.597656 31.859375 C 17.835938 31.777344 18.082031 31.722656 18.335938 31.699219 C 18.585938 31.671875 18.839844 31.675781 19.089844 31.710938 C 19.34375 31.742188 19.585938 31.804688 19.824219 31.894531 C 20.0625 31.984375 20.289062 32.097656 20.5 32.238281 C 20.710938 32.378906 20.902344 32.542969 21.074219 32.726562 C 21.25 32.914062 21.398438 33.117188 21.527344 33.335938 C 21.652344 33.554688 21.753906 33.785156 21.828125 34.027344 C 21.902344 34.273438 21.945312 34.519531 21.960938 34.773438 C 21.980469 35.027344 21.964844 35.277344 21.925781 35.527344 C 21.882812 35.777344 21.816406 36.019531 21.71875 36.253906 C 21.621094 36.492188 21.5 36.710938 21.351562 36.917969 C 21.203125 37.125 21.035156 37.308594 20.84375 37.476562 C 20.652344 37.644531 20.445312 37.789062 20.21875 37.90625 C 19.996094 38.027344 19.761719 38.121094 19.515625 38.1875 C 19.273438 38.25 19.023438 38.289062 18.769531 38.296875 C 18.515625 38.304688 18.265625 38.285156 18.015625 38.234375 C 17.765625 38.183594 17.527344 38.109375 17.292969 38.003906 C 17.0625 37.898438 16.847656 37.769531 16.644531 37.613281 C 16.445312 37.460938 16.265625 37.285156 16.101562 37.085938 C 15.941406 36.890625 15.804688 36.679688 15.695312 36.453125 C 15.582031 36.222656 15.496094 35.988281 15.4375 35.738281 C 15.382812 35.492188 15.351562 35.242188 15.351562 34.988281 C 15.355469 34.074219 15.675781 33.296875 16.320312 32.652344 Z M 16.320312 32.652344 " fill-opacity="1" fill-rule="nonzero"/></g><g clip-path="url(#5a21c70100)"><path fill="#d9d9d9" d="M 5.3125 103.910156 L 72.699219 36.523438 C 72.871094 36.65625 73.050781 36.777344 73.238281 36.886719 C 73.421875 36.996094 73.617188 37.089844 73.816406 37.175781 C 74.011719 37.261719 74.21875 37.335938 74.425781 37.394531 C 74.632812 37.453125 74.84375 37.5 75.058594 37.535156 C 75.269531 37.566406 75.484375 37.585938 75.703125 37.59375 C 75.917969 37.597656 76.132812 37.589844 76.347656 37.570312 C 76.5625 37.550781 76.777344 37.515625 76.988281 37.46875 C 77.199219 37.417969 77.40625 37.359375 77.609375 37.285156 C 77.8125 37.210938 78.011719 37.125 78.203125 37.027344 C 78.394531 36.925781 78.582031 36.816406 78.757812 36.695312 C 78.9375 36.574219 79.109375 36.441406 79.269531 36.296875 C 79.433594 36.152344 79.585938 36 79.726562 35.839844 C 79.871094 35.675781 80 35.503906 80.121094 35.324219 C 80.242188 35.144531 80.355469 34.960938 80.453125 34.765625 C 80.550781 34.574219 80.632812 34.375 80.707031 34.171875 C 80.78125 33.96875 80.839844 33.761719 80.886719 33.550781 C 80.933594 33.339844 80.96875 33.125 80.988281 32.910156 C 81.007812 32.695312 81.015625 32.480469 81.007812 32.265625 C 81 32.046875 80.980469 31.832031 80.945312 31.621094 C 80.910156 31.40625 80.863281 31.195312 80.804688 30.988281 C 80.742188 30.78125 80.667969 30.578125 80.582031 30.378906 C 80.496094 30.179688 80.398438 29.988281 80.289062 29.800781 C 80.179688 29.617188 80.054688 29.4375 79.925781 29.265625 C 79.792969 29.097656 79.648438 28.933594 79.496094 28.78125 C 79.34375 28.628906 79.179688 28.484375 79.007812 28.355469 C 78.839844 28.222656 78.660156 28.101562 78.472656 27.988281 C 78.289062 27.878906 78.09375 27.78125 77.898438 27.695312 C 77.699219 27.609375 77.496094 27.539062 77.289062 27.476562 C 77.078125 27.417969 76.867188 27.371094 76.65625 27.335938 C 76.441406 27.300781 76.226562 27.28125 76.011719 27.273438 C 75.792969 27.269531 75.578125 27.273438 75.363281 27.296875 C 75.148438 27.316406 74.933594 27.347656 74.722656 27.394531 C 74.511719 27.445312 74.304688 27.503906 74.101562 27.578125 C 73.898438 27.648438 73.699219 27.734375 73.507812 27.832031 C 73.316406 27.933594 73.128906 28.042969 72.949219 28.164062 C 72.773438 28.285156 72.601562 28.417969 72.4375 28.558594 C 72.277344 28.703125 72.125 28.855469 71.980469 29.015625 C 71.835938 29.179688 71.703125 29.347656 71.582031 29.527344 C 71.460938 29.707031 71.351562 29.890625 71.253906 30.085938 C 71.15625 30.277344 71.070312 30.476562 70.996094 30.679688 C 70.921875 30.882812 70.859375 31.089844 70.8125 31.300781 C 70.765625 31.511719 70.730469 31.722656 70.710938 31.941406 C 70.691406 32.15625 70.683594 32.371094 70.691406 32.585938 C 70.695312 32.804688 70.714844 33.019531 70.75 33.230469 C 70.78125 33.445312 70.828125 33.65625 70.890625 33.863281 C 70.949219 34.070312 71.023438 34.273438 71.109375 34.472656 C 71.191406 34.671875 71.289062 34.863281 71.402344 35.050781 C 71.511719 35.238281 71.632812 35.417969 71.761719 35.585938 L 5.3125 102.039062 Z M 73.136719 29.722656 C 73.496094 29.363281 73.910156 29.085938 74.382812 28.890625 C 74.851562 28.695312 75.339844 28.597656 75.851562 28.597656 C 76.359375 28.597656 76.847656 28.695312 77.320312 28.890625 C 77.789062 29.085938 78.203125 29.363281 78.566406 29.722656 C 78.925781 30.082031 79.203125 30.496094 79.398438 30.964844 C 79.589844 31.4375 79.6875 31.925781 79.6875 32.433594 C 79.6875 32.945312 79.589844 33.433594 79.398438 33.902344 C 79.203125 34.375 78.925781 34.789062 78.566406 35.148438 C 78.203125 35.507812 77.789062 35.785156 77.320312 35.980469 C 76.847656 36.175781 76.359375 36.273438 75.851562 36.273438 C 75.339844 36.273438 74.851562 36.175781 74.382812 35.980469 C 73.910156 35.785156 73.496094 35.507812 73.136719 35.148438 C 72.957031 34.96875 72.796875 34.777344 72.65625 34.566406 C 72.515625 34.359375 72.394531 34.136719 72.296875 33.90625 C 72.199219 33.671875 72.128906 33.433594 72.078125 33.183594 C 72.027344 32.9375 72.003906 32.6875 72.003906 32.433594 C 72.003906 32.183594 72.027344 31.933594 72.078125 31.683594 C 72.128906 31.4375 72.199219 31.199219 72.296875 30.964844 C 72.394531 30.730469 72.515625 30.511719 72.65625 30.300781 C 72.796875 30.09375 72.957031 29.898438 73.136719 29.722656 Z M 73.136719 29.722656 " fill-opacity="1" fill-rule="nonzero"/></g><g clip-path="url(#ec543b8564)"><path fill="#d9d9d9" d="M 138.023438 23.746094 L 108.730469 23.746094 L 86.488281 45.992188 C 86.316406 45.859375 86.136719 45.738281 85.949219 45.628906 C 85.761719 45.519531 85.570312 45.425781 85.371094 45.339844 C 85.171875 45.253906 84.96875 45.179688 84.761719 45.121094 C 84.554688 45.0625 84.34375 45.015625 84.128906 44.980469 C 83.914062 44.949219 83.699219 44.929688 83.484375 44.921875 C 83.269531 44.917969 83.054688 44.925781 82.835938 44.945312 C 82.621094 44.964844 82.410156 45 82.199219 45.046875 C 81.988281 45.097656 81.78125 45.15625 81.578125 45.230469 C 81.375 45.304688 81.175781 45.390625 80.984375 45.488281 C 80.792969 45.589844 80.605469 45.699219 80.425781 45.820312 C 80.25 45.941406 80.078125 46.074219 79.917969 46.21875 C 79.753906 46.363281 79.601562 46.515625 79.460938 46.675781 C 79.316406 46.839844 79.183594 47.011719 79.0625 47.191406 C 78.941406 47.371094 78.832031 47.554688 78.734375 47.75 C 78.636719 47.941406 78.550781 48.140625 78.480469 48.34375 C 78.40625 48.546875 78.347656 48.753906 78.300781 48.964844 C 78.253906 49.175781 78.21875 49.390625 78.199219 49.605469 C 78.179688 49.820312 78.171875 50.035156 78.179688 50.25 C 78.1875 50.46875 78.207031 50.683594 78.242188 50.894531 C 78.277344 51.109375 78.324219 51.320312 78.382812 51.527344 C 78.445312 51.734375 78.519531 51.9375 78.605469 52.136719 C 78.691406 52.335938 78.789062 52.527344 78.898438 52.714844 C 79.007812 52.898438 79.128906 53.078125 79.261719 53.25 C 79.394531 53.417969 79.539062 53.582031 79.691406 53.734375 C 79.84375 53.886719 80.007812 54.03125 80.175781 54.160156 C 80.347656 54.292969 80.527344 54.414062 80.714844 54.527344 C 80.898438 54.636719 81.09375 54.734375 81.289062 54.820312 C 81.488281 54.90625 81.691406 54.976562 81.898438 55.039062 C 82.105469 55.097656 82.316406 55.144531 82.53125 55.179688 C 82.746094 55.214844 82.960938 55.234375 83.175781 55.242188 C 83.390625 55.246094 83.609375 55.242188 83.824219 55.21875 C 84.039062 55.199219 84.25 55.167969 84.460938 55.117188 C 84.675781 55.070312 84.882812 55.011719 85.085938 54.9375 C 85.289062 54.867188 85.484375 54.78125 85.679688 54.683594 C 85.871094 54.582031 86.058594 54.472656 86.238281 54.351562 C 86.414062 54.230469 86.585938 54.097656 86.75 53.957031 C 86.910156 53.8125 87.0625 53.660156 87.207031 53.5 C 87.351562 53.335938 87.480469 53.167969 87.605469 52.988281 C 87.726562 52.808594 87.835938 52.621094 87.933594 52.429688 C 88.03125 52.238281 88.117188 52.039062 88.191406 51.835938 C 88.265625 51.632812 88.324219 51.425781 88.375 51.214844 C 88.421875 51.003906 88.453125 50.789062 88.476562 50.574219 C 88.496094 50.359375 88.503906 50.144531 88.496094 49.929688 C 88.492188 49.710938 88.46875 49.496094 88.4375 49.285156 C 88.402344 49.070312 88.355469 48.859375 88.296875 48.652344 C 88.238281 48.445312 88.164062 48.242188 88.078125 48.042969 C 87.992188 47.84375 87.894531 47.652344 87.785156 47.464844 C 87.675781 47.277344 87.554688 47.097656 87.421875 46.929688 L 109.28125 25.070312 L 138.570312 25.070312 L 163.53125 0.109375 L 161.660156 0.109375 Z M 86.050781 52.792969 C 85.691406 53.152344 85.273438 53.429688 84.804688 53.625 C 84.335938 53.820312 83.84375 53.917969 83.335938 53.917969 C 82.828125 53.917969 82.335938 53.820312 81.867188 53.625 C 81.398438 53.429688 80.980469 53.152344 80.621094 52.792969 C 80.261719 52.433594 79.984375 52.019531 79.789062 51.550781 C 79.59375 51.078125 79.496094 50.589844 79.496094 50.082031 C 79.496094 49.570312 79.59375 49.082031 79.789062 48.613281 C 79.984375 48.140625 80.261719 47.726562 80.621094 47.367188 C 80.980469 47.007812 81.398438 46.730469 81.867188 46.535156 C 82.335938 46.339844 82.828125 46.242188 83.335938 46.242188 C 83.84375 46.242188 84.335938 46.339844 84.804688 46.535156 C 85.273438 46.730469 85.691406 47.007812 86.050781 47.367188 C 86.410156 47.726562 86.691406 48.140625 86.886719 48.609375 C 87.082031 49.082031 87.179688 49.570312 87.179688 50.082031 C 87.179688 50.589844 87.082031 51.078125 86.886719 51.550781 C 86.691406 52.019531 86.410156 52.433594 86.050781 52.792969 Z M 86.050781 52.792969 " fill-opacity="1" fill-rule="nonzero"/></g><g clip-path="url(#6b163830a4)"><path fill="#d9d9d9" d="M 190.574219 0.109375 L 148.015625 42.667969 L 124.734375 42.667969 C 124.707031 42.453125 124.667969 42.242188 124.613281 42.03125 C 124.558594 41.820312 124.492188 41.617188 124.410156 41.417969 C 124.332031 41.214844 124.238281 41.019531 124.132812 40.832031 C 124.027344 40.640625 123.914062 40.460938 123.785156 40.285156 C 123.65625 40.109375 123.519531 39.945312 123.371094 39.789062 C 123.222656 39.628906 123.066406 39.480469 122.898438 39.34375 C 122.730469 39.207031 122.554688 39.082031 122.375 38.964844 C 122.191406 38.851562 122 38.746094 121.804688 38.65625 C 121.609375 38.5625 121.410156 38.484375 121.203125 38.417969 C 120.996094 38.351562 120.789062 38.296875 120.574219 38.257812 C 120.363281 38.21875 120.148438 38.191406 119.933594 38.175781 C 119.71875 38.164062 119.5 38.164062 119.285156 38.179688 C 119.070312 38.191406 118.855469 38.21875 118.644531 38.261719 C 118.429688 38.300781 118.222656 38.355469 118.015625 38.421875 C 117.8125 38.488281 117.609375 38.570312 117.414062 38.660156 C 117.21875 38.753906 117.03125 38.859375 116.847656 38.972656 C 116.664062 39.089844 116.492188 39.21875 116.324219 39.355469 C 116.15625 39.492188 116 39.640625 115.851562 39.796875 C 115.703125 39.957031 115.566406 40.121094 115.441406 40.296875 C 115.3125 40.472656 115.199219 40.65625 115.09375 40.84375 C 114.988281 41.035156 114.898438 41.230469 114.816406 41.429688 C 114.738281 41.632812 114.671875 41.835938 114.617188 42.046875 C 114.566406 42.257812 114.523438 42.46875 114.496094 42.683594 C 114.46875 42.898438 114.457031 43.113281 114.457031 43.328125 C 114.457031 43.546875 114.46875 43.761719 114.496094 43.976562 C 114.523438 44.191406 114.566406 44.402344 114.617188 44.609375 C 114.671875 44.820312 114.738281 45.027344 114.816406 45.226562 C 114.898438 45.429688 114.988281 45.625 115.09375 45.8125 C 115.199219 46.003906 115.3125 46.183594 115.441406 46.359375 C 115.566406 46.535156 115.703125 46.699219 115.851562 46.859375 C 116 47.015625 116.15625 47.164062 116.324219 47.300781 C 116.492188 47.441406 116.664062 47.566406 116.847656 47.683594 C 117.03125 47.800781 117.21875 47.902344 117.414062 47.996094 C 117.609375 48.089844 117.8125 48.167969 118.015625 48.234375 C 118.222656 48.300781 118.429688 48.355469 118.644531 48.398438 C 118.855469 48.4375 119.070312 48.464844 119.285156 48.480469 C 119.5 48.492188 119.71875 48.492188 119.933594 48.480469 C 120.148438 48.464844 120.363281 48.441406 120.574219 48.398438 C 120.789062 48.359375 120.996094 48.304688 121.203125 48.238281 C 121.410156 48.171875 121.609375 48.09375 121.804688 48.003906 C 122 47.910156 122.191406 47.808594 122.375 47.691406 C 122.554688 47.578125 122.730469 47.449219 122.898438 47.3125 C 123.066406 47.175781 123.222656 47.027344 123.371094 46.871094 C 123.519531 46.714844 123.65625 46.546875 123.785156 46.371094 C 123.914062 46.199219 124.027344 46.015625 124.132812 45.828125 C 124.238281 45.636719 124.332031 45.441406 124.410156 45.242188 C 124.492188 45.039062 124.558594 44.835938 124.613281 44.625 C 124.667969 44.417969 124.707031 44.203125 124.734375 43.992188 L 148.570312 43.992188 L 192.449219 0.109375 Z M 119.617188 47.167969 C 119.109375 47.167969 118.617188 47.070312 118.148438 46.875 C 117.679688 46.679688 117.261719 46.402344 116.902344 46.042969 C 116.542969 45.683594 116.265625 45.269531 116.070312 44.796875 C 115.875 44.328125 115.78125 43.839844 115.78125 43.328125 C 115.78125 42.820312 115.875 42.332031 116.070312 41.863281 C 116.265625 41.390625 116.542969 40.976562 116.902344 40.617188 C 117.261719 40.257812 117.679688 39.980469 118.148438 39.785156 C 118.617188 39.589844 119.109375 39.492188 119.617188 39.492188 C 120.125 39.492188 120.617188 39.589844 121.085938 39.785156 C 121.554688 39.980469 121.972656 40.257812 122.332031 40.617188 C 122.691406 40.976562 122.96875 41.390625 123.164062 41.863281 C 123.355469 42.332031 123.453125 42.820312 123.453125 43.328125 C 123.453125 43.839844 123.359375 44.328125 123.164062 44.796875 C 122.96875 45.269531 122.691406 45.683594 122.332031 46.042969 C 121.972656 46.402344 121.558594 46.679688 121.085938 46.875 C 120.617188 47.070312 120.128906 47.167969 119.621094 47.167969 Z M 119.617188 47.167969 " fill-opacity="1" fill-rule="nonzero"/></g><g clip-path="url(#d0a9310d96)"><path fill="#d9d9d9" d="M 5.3125 133.863281 L 33.648438 105.53125 C 33.816406 105.660156 33.996094 105.78125 34.183594 105.890625 C 34.371094 106 34.5625 106.097656 34.761719 106.183594 C 34.960938 106.269531 35.164062 106.34375 35.371094 106.402344 C 35.578125 106.460938 35.789062 106.507812 36.003906 106.542969 C 36.214844 106.574219 36.429688 106.59375 36.648438 106.601562 C 36.863281 106.609375 37.078125 106.601562 37.292969 106.578125 C 37.511719 106.558594 37.722656 106.523438 37.933594 106.476562 C 38.144531 106.429688 38.351562 106.367188 38.554688 106.296875 C 38.757812 106.222656 38.957031 106.136719 39.148438 106.035156 C 39.339844 105.9375 39.527344 105.828125 39.707031 105.707031 C 39.882812 105.585938 40.054688 105.453125 40.21875 105.308594 C 40.378906 105.164062 40.53125 105.011719 40.675781 104.851562 C 40.816406 104.6875 40.949219 104.515625 41.070312 104.339844 C 41.191406 104.160156 41.300781 103.972656 41.398438 103.78125 C 41.496094 103.585938 41.582031 103.390625 41.65625 103.1875 C 41.730469 102.980469 41.789062 102.773438 41.835938 102.5625 C 41.882812 102.351562 41.917969 102.140625 41.9375 101.925781 C 41.957031 101.707031 41.964844 101.492188 41.957031 101.277344 C 41.949219 101.0625 41.929688 100.847656 41.894531 100.632812 C 41.859375 100.417969 41.8125 100.207031 41.753906 100 C 41.691406 99.792969 41.621094 99.589844 41.535156 99.390625 C 41.449219 99.191406 41.347656 99 41.238281 98.816406 C 41.128906 98.628906 41.007812 98.449219 40.875 98.277344 C 40.742188 98.109375 40.601562 97.945312 40.445312 97.792969 C 40.292969 97.640625 40.132812 97.496094 39.960938 97.363281 C 39.789062 97.234375 39.613281 97.113281 39.425781 97 C 39.238281 96.890625 39.046875 96.792969 38.847656 96.707031 C 38.652344 96.621094 38.449219 96.546875 38.238281 96.488281 C 38.03125 96.425781 37.820312 96.378906 37.609375 96.347656 C 37.394531 96.3125 37.179688 96.292969 36.964844 96.285156 C 36.746094 96.277344 36.53125 96.285156 36.316406 96.304688 C 36.101562 96.324219 35.886719 96.359375 35.675781 96.40625 C 35.464844 96.453125 35.257812 96.511719 35.054688 96.585938 C 34.851562 96.660156 34.652344 96.742188 34.460938 96.839844 C 34.265625 96.941406 34.082031 97.050781 33.902344 97.171875 C 33.722656 97.292969 33.554688 97.425781 33.390625 97.566406 C 33.226562 97.710938 33.074219 97.863281 32.933594 98.023438 C 32.789062 98.1875 32.65625 98.355469 32.535156 98.535156 C 32.414062 98.714844 32.300781 98.898438 32.203125 99.089844 C 32.105469 99.285156 32.019531 99.480469 31.945312 99.683594 C 31.871094 99.890625 31.8125 100.097656 31.761719 100.308594 C 31.714844 100.519531 31.683594 100.730469 31.660156 100.945312 C 31.640625 101.160156 31.632812 101.378906 31.640625 101.59375 C 31.644531 101.808594 31.664062 102.023438 31.699219 102.238281 C 31.730469 102.453125 31.777344 102.664062 31.839844 102.871094 C 31.898438 103.078125 31.972656 103.28125 32.054688 103.480469 C 32.140625 103.679688 32.238281 103.871094 32.347656 104.058594 C 32.457031 104.246094 32.578125 104.421875 32.710938 104.59375 L 5.3125 131.992188 Z M 34.082031 98.726562 C 34.441406 98.367188 34.859375 98.089844 35.328125 97.894531 C 35.796875 97.699219 36.289062 97.601562 36.796875 97.601562 C 37.304688 97.601562 37.796875 97.699219 38.265625 97.894531 C 38.734375 98.089844 39.152344 98.367188 39.511719 98.726562 C 39.871094 99.085938 40.148438 99.5 40.34375 99.972656 C 40.539062 100.441406 40.636719 100.933594 40.636719 101.441406 C 40.636719 101.949219 40.539062 102.4375 40.34375 102.910156 C 40.148438 103.378906 39.871094 103.792969 39.511719 104.15625 C 39.152344 104.515625 38.734375 104.792969 38.265625 104.988281 C 37.796875 105.179688 37.304688 105.277344 36.796875 105.277344 C 36.289062 105.277344 35.796875 105.179688 35.328125 104.984375 C 34.859375 104.792969 34.441406 104.515625 34.082031 104.152344 C 33.722656 103.796875 33.441406 103.382812 33.246094 102.910156 C 33.050781 102.441406 32.949219 101.949219 32.949219 101.441406 C 32.949219 100.929688 33.050781 100.441406 33.246094 99.972656 C 33.441406 99.5 33.722656 99.085938 34.082031 98.726562 Z M 34.082031 98.726562 " fill-opacity="1" fill-rule="nonzero"/></g><path fill="#d9d9d9" d="M 63.160156 69.617188 C 62.648438 69.621094 62.140625 69.648438 61.632812 69.707031 C 61.125 69.765625 60.625 69.851562 60.128906 69.96875 C 59.632812 70.085938 59.144531 70.230469 58.664062 70.402344 C 58.183594 70.574219 57.714844 70.773438 57.257812 71 C 56.796875 71.226562 56.355469 71.476562 55.925781 71.753906 C 55.5 72.03125 55.085938 72.328125 54.691406 72.652344 C 54.296875 72.976562 53.925781 73.324219 53.570312 73.691406 C 53.214844 74.054688 52.882812 74.441406 52.574219 74.847656 C 52.261719 75.253906 51.976562 75.671875 51.714844 76.113281 C 51.453125 76.550781 51.214844 77 51.003906 77.464844 C 50.796875 77.929688 50.613281 78.40625 50.457031 78.890625 C 50.300781 79.378906 50.171875 79.871094 50.074219 80.371094 C 49.972656 80.871094 49.902344 81.375 49.863281 81.882812 C 49.820312 82.390625 49.808594 82.902344 49.824219 83.410156 C 49.84375 83.921875 49.890625 84.429688 49.964844 84.933594 C 50.039062 85.4375 50.144531 85.9375 50.273438 86.429688 C 50.40625 86.921875 50.566406 87.40625 50.753906 87.878906 C 50.941406 88.355469 51.15625 88.816406 51.398438 89.265625 C 51.640625 89.714844 51.90625 90.152344 52.195312 90.570312 C 52.484375 90.988281 52.800781 91.390625 53.136719 91.773438 C 53.472656 92.15625 53.828125 92.519531 54.207031 92.863281 C 54.585938 93.203125 54.984375 93.523438 55.398438 93.820312 C 55.8125 94.117188 56.242188 94.390625 56.6875 94.636719 C 57.136719 94.886719 57.59375 95.105469 58.066406 95.300781 C 58.535156 95.496094 59.019531 95.664062 59.507812 95.804688 C 60 95.945312 60.496094 96.054688 61 96.136719 C 61.503906 96.222656 62.007812 96.273438 62.519531 96.300781 C 63.027344 96.324219 63.539062 96.320312 64.046875 96.285156 C 64.554688 96.253906 65.0625 96.191406 65.5625 96.097656 C 66.066406 96.007812 66.558594 95.886719 67.046875 95.738281 C 67.535156 95.589844 68.015625 95.414062 68.480469 95.210938 C 68.949219 95.007812 69.40625 94.777344 69.847656 94.523438 C 70.289062 94.269531 70.714844 93.988281 71.125 93.683594 C 71.535156 93.378906 71.925781 93.054688 72.296875 92.707031 C 72.667969 92.355469 73.019531 91.988281 73.351562 91.597656 C 73.679688 91.207031 73.984375 90.800781 74.269531 90.378906 C 74.550781 89.953125 74.8125 89.515625 75.042969 89.058594 C 75.277344 88.605469 75.484375 88.140625 75.660156 87.664062 C 75.839844 87.183594 75.992188 86.699219 76.117188 86.203125 C 76.242188 85.710938 76.335938 85.207031 76.402344 84.703125 C 76.46875 84.195312 76.503906 83.6875 76.511719 83.179688 C 76.523438 82.667969 76.5 82.160156 76.449219 81.652344 C 76.398438 81.144531 76.320312 80.640625 76.214844 80.144531 C 76.105469 79.644531 75.96875 79.152344 75.804688 78.671875 C 75.640625 78.1875 75.449219 77.714844 75.230469 77.253906 C 75.011719 76.792969 74.769531 76.347656 74.5 75.914062 C 74.230469 75.480469 73.9375 75.0625 73.617188 74.664062 C 73.300781 74.265625 72.960938 73.882812 72.601562 73.523438 C 71.351562 72.269531 69.90625 71.304688 68.269531 70.628906 C 66.632812 69.953125 64.929688 69.617188 63.160156 69.617188 Z M 71.664062 91.472656 C 71.105469 92.03125 70.5 92.53125 69.84375 92.96875 C 69.1875 93.410156 68.492188 93.777344 67.761719 94.082031 C 67.03125 94.382812 66.28125 94.613281 65.503906 94.765625 C 64.730469 94.921875 63.949219 94.996094 63.160156 94.996094 C 62.367188 94.996094 61.585938 94.917969 60.8125 94.765625 C 60.035156 94.613281 59.285156 94.382812 58.554688 94.082031 C 57.824219 93.777344 57.132812 93.410156 56.476562 92.96875 C 55.820312 92.53125 55.210938 92.03125 54.652344 91.472656 C 54.09375 90.914062 53.59375 90.308594 53.15625 89.648438 C 52.71875 88.992188 52.347656 88.300781 52.042969 87.570312 C 51.742188 86.839844 51.515625 86.089844 51.359375 85.3125 C 51.207031 84.539062 51.128906 83.757812 51.128906 82.964844 C 51.128906 82.175781 51.207031 81.394531 51.359375 80.621094 C 51.515625 79.84375 51.742188 79.09375 52.042969 78.363281 C 52.347656 77.632812 52.71875 76.941406 53.15625 76.28125 C 53.59375 75.625 54.09375 75.019531 54.652344 74.460938 C 55.210938 73.902344 55.820312 73.402344 56.476562 72.964844 C 57.132812 72.523438 57.824219 72.15625 58.554688 71.851562 C 59.285156 71.550781 60.035156 71.320312 60.8125 71.167969 C 61.585938 71.011719 62.367188 70.9375 63.160156 70.9375 C 63.949219 70.9375 64.730469 71.011719 65.503906 71.167969 C 66.28125 71.320312 67.03125 71.550781 67.761719 71.851562 C 68.492188 72.15625 69.1875 72.523438 69.84375 72.964844 C 70.5 73.402344 71.105469 73.902344 71.664062 74.460938 C 72.226562 75.015625 72.726562 75.625 73.167969 76.28125 C 73.609375 76.9375 73.980469 77.628906 74.285156 78.359375 C 74.589844 79.089844 74.816406 79.84375 74.972656 80.617188 C 75.128906 81.394531 75.207031 82.175781 75.207031 82.964844 C 75.207031 83.757812 75.128906 84.539062 74.972656 85.316406 C 74.816406 86.089844 74.589844 86.84375 74.285156 87.574219 C 73.980469 88.304688 73.609375 88.996094 73.167969 89.652344 C 72.726562 90.308594 72.226562 90.917969 71.664062 91.472656 Z M 71.664062 91.472656 " fill-opacity="1" fill-rule="nonzero"/></svg>