<svg xmlns="http://www.w3.org/2000/svg" xmlns:xlink="http://www.w3.org/1999/xlink" width="500" zoomAndPan="magnify" viewBox="0 0 375 374.999991" height="500" preserveAspectRatio="xMidYMid meet" version="1.0"><defs><g/><clipPath id="fd32a938e0"><path d="M 75.050781 55.042969 L 300 55.042969 L 300 280 L 75.050781 280 Z M 75.050781 55.042969 " clip-rule="nonzero"/></clipPath><clipPath id="0d4908644b"><path d="M 132.40625 185 L 242.65625 185 L 242.65625 206.378906 L 132.40625 206.378906 Z M 132.40625 185 " clip-rule="nonzero"/></clipPath><clipPath id="1a68959f6a"><path d="M 140 128.378906 L 235 128.378906 L 235 188 L 140 188 Z M 140 128.378906 " clip-rule="nonzero"/></clipPath></defs><g clip-path="url(#fd32a938e0)"><path fill="#130c23" d="M 187.496094 60.285156 C 201.972656 60.285156 216.011719 63.121094 229.226562 68.710938 C 241.992188 74.109375 253.457031 81.84375 263.304688 91.6875 C 273.152344 101.53125 280.882812 113.003906 286.28125 125.769531 C 291.871094 138.984375 294.707031 153.023438 294.707031 167.496094 C 294.707031 181.972656 291.871094 196.007812 286.28125 209.226562 C 280.882812 221.992188 273.152344 233.457031 263.304688 243.304688 C 253.460938 253.15625 241.992188 260.882812 229.226562 266.28125 C 216.011719 271.871094 201.972656 274.707031 187.496094 274.707031 C 173.023438 274.707031 158.984375 271.871094 145.769531 266.28125 C 133.003906 260.882812 121.539062 253.152344 111.6875 243.304688 C 101.84375 233.460938 94.109375 221.992188 88.710938 209.226562 C 83.121094 196.007812 80.285156 181.972656 80.285156 167.496094 C 80.285156 153.023438 83.121094 138.984375 88.710938 125.769531 C 94.109375 113.003906 101.84375 101.539062 111.6875 91.6875 C 121.535156 81.84375 133.003906 74.109375 145.769531 68.710938 C 158.984375 63.121094 173.023438 60.285156 187.496094 60.285156 M 187.496094 55.042969 C 125.390625 55.042969 75.050781 105.386719 75.050781 167.492188 C 75.050781 229.597656 125.390625 279.9375 187.496094 279.9375 C 249.601562 279.9375 299.945312 229.597656 299.945312 167.492188 C 299.945312 105.386719 249.601562 55.042969 187.496094 55.042969 Z M 187.496094 55.042969 " fill-opacity="1" fill-rule="nonzero"/></g><path fill="#130c23" d="M 187.40625 68.636719 C 200.816406 68.636719 213.824219 71.265625 226.066406 76.445312 C 237.890625 81.445312 248.511719 88.605469 257.632812 97.726562 C 266.753906 106.847656 273.917969 117.46875 278.917969 129.296875 C 284.097656 141.535156 286.722656 154.542969 286.722656 167.953125 C 286.722656 181.363281 284.097656 194.367188 278.917969 206.609375 C 273.917969 218.4375 266.753906 229.058594 257.632812 238.179688 C 248.511719 247.300781 237.890625 254.460938 226.066406 259.460938 C 213.824219 264.640625 200.816406 267.269531 187.40625 267.269531 C 174 267.269531 160.992188 264.640625 148.75 259.460938 C 136.925781 254.460938 126.304688 247.300781 117.183594 238.179688 C 108.0625 229.058594 100.898438 218.4375 95.898438 206.609375 C 90.71875 194.367188 88.09375 181.363281 88.09375 167.953125 C 88.09375 154.542969 90.71875 141.535156 95.898438 129.296875 C 100.898438 117.46875 108.0625 106.847656 117.183594 97.726562 C 126.304688 88.605469 136.925781 81.445312 148.75 76.445312 C 160.992188 71.265625 174 68.636719 187.40625 68.636719 M 187.40625 66.015625 C 131.109375 66.015625 85.476562 111.652344 85.476562 167.949219 C 85.476562 224.246094 131.109375 269.878906 187.40625 269.878906 C 243.703125 269.878906 289.339844 224.246094 289.339844 167.949219 C 289.339844 111.652344 243.703125 66.015625 187.40625 66.015625 Z M 187.40625 66.015625 " fill-opacity="1" fill-rule="nonzero"/><g clip-path="url(#0d4908644b)"><path fill="#130c23" d="M 229.050781 206.574219 L 145.941406 206.574219 C 138.476562 206.574219 132.40625 200.503906 132.40625 193.042969 L 132.40625 186.457031 C 132.40625 185.761719 132.972656 185.195312 133.667969 185.195312 L 241.324219 185.195312 C 242.023438 185.195312 242.585938 185.761719 242.585938 186.457031 L 242.585938 193.042969 C 242.585938 200.503906 236.515625 206.574219 229.050781 206.574219 Z M 134.929688 187.71875 L 134.929688 193.042969 C 134.929688 199.113281 139.871094 204.050781 145.941406 204.050781 L 229.050781 204.050781 C 235.125 204.050781 240.0625 199.113281 240.0625 193.042969 L 240.0625 187.71875 Z M 134.929688 187.71875 " fill-opacity="1" fill-rule="nonzero"/></g><g clip-path="url(#1a68959f6a)"><path fill="#130c23" d="M 233.566406 187.71875 C 232.871094 187.71875 232.304688 187.152344 232.304688 186.457031 L 232.304688 140.882812 C 232.304688 135.382812 227.828125 130.90625 222.328125 130.90625 L 152.664062 130.90625 C 147.164062 130.90625 142.6875 135.382812 142.6875 140.882812 L 142.6875 186.457031 C 142.6875 187.152344 142.125 187.71875 141.425781 187.71875 C 140.730469 187.71875 140.164062 187.152344 140.164062 186.457031 L 140.164062 140.882812 C 140.164062 133.988281 145.773438 128.382812 152.664062 128.382812 L 222.328125 128.382812 C 229.222656 128.382812 234.828125 133.988281 234.828125 140.882812 L 234.828125 186.457031 C 234.828125 187.152344 234.261719 187.71875 233.566406 187.71875 Z M 233.566406 187.71875 " fill-opacity="1" fill-rule="nonzero"/></g><path fill="#130c23" d="M 170.410156 175 C 170.09375 175 169.773438 174.878906 169.53125 174.640625 L 153.484375 158.953125 C 152.992188 158.472656 152.976562 157.683594 153.449219 157.183594 L 168.316406 141.496094 C 168.796875 140.992188 169.59375 140.96875 170.097656 141.449219 C 170.605469 141.925781 170.625 142.726562 170.148438 143.230469 L 156.136719 158.015625 L 171.292969 172.835938 C 171.792969 173.320312 171.800781 174.121094 171.3125 174.617188 C 171.066406 174.871094 170.738281 175 170.410156 175 Z M 170.410156 175 " fill-opacity="1" fill-rule="nonzero"/><path fill="#130c23" d="M 204.582031 175 C 204.253906 175 203.925781 174.871094 203.679688 174.617188 C 203.191406 174.121094 203.203125 173.320312 203.699219 172.835938 L 218.855469 158.015625 L 204.847656 143.230469 C 204.367188 142.726562 204.386719 141.925781 204.894531 141.449219 C 205.398438 140.96875 206.199219 140.992188 206.679688 141.496094 L 221.542969 157.183594 C 222.015625 157.683594 222 158.472656 221.507812 158.953125 L 205.464844 174.640625 C 205.21875 174.878906 204.898438 175 204.582031 175 Z M 204.582031 175 " fill-opacity="1" fill-rule="nonzero"/><path fill="#130c23" d="M 179.3125 178.460938 C 179.144531 178.460938 178.976562 178.429688 178.816406 178.359375 C 178.175781 178.085938 177.878906 177.34375 178.152344 176.703125 L 194.523438 138.40625 C 194.796875 137.765625 195.535156 137.46875 196.179688 137.742188 C 196.820312 138.015625 197.117188 138.757812 196.839844 139.398438 L 180.472656 177.695312 C 180.265625 178.171875 179.800781 178.460938 179.3125 178.460938 Z M 179.3125 178.460938 " fill-opacity="1" fill-rule="nonzero"/><path fill="#130c23" d="M 218.617188 197.128906 L 156.378906 197.128906 C 155.679688 197.128906 155.117188 196.5625 155.117188 195.867188 L 155.117188 186.457031 C 155.117188 185.757812 155.679688 185.195312 156.378906 185.195312 C 157.074219 185.195312 157.640625 185.757812 157.640625 186.457031 L 157.640625 194.605469 L 217.355469 194.605469 L 217.355469 186.457031 C 217.355469 185.757812 217.917969 185.195312 218.617188 185.195312 C 219.3125 185.195312 219.878906 185.757812 219.878906 186.457031 L 219.878906 195.867188 C 219.878906 196.5625 219.3125 197.128906 218.617188 197.128906 Z M 218.617188 197.128906 " fill-opacity="1" fill-rule="nonzero"/><g fill="#130c23" fill-opacity="1"><g transform="translate(132.406564, 126.177646)"><g><path d="M 13.890625 -6.484375 L -4.140625 -23.921875 L -4.265625 -23.859375 C -3.335938 -22.253906 -2.332031 -20.289062 -1.25 -17.96875 L 5.859375 -2.734375 L 3.296875 -1.53125 L -7.875 -25.5 L -3.6875 -27.46875 L 13.125 -11.21875 L 13.25 -11.28125 L 11.6875 -34.625 L 15.84375 -36.5625 L 27.015625 -12.59375 L 24.25 -11.296875 L 17.046875 -26.734375 C 16.222656 -28.503906 15.398438 -30.460938 14.578125 -32.609375 L 14.4375 -32.546875 L 16.140625 -7.53125 Z M 13.890625 -6.484375 "/></g></g></g><g fill="#130c23" fill-opacity="1"><g transform="translate(159.7358, 113.845937)"><g><path d="M 15.109375 -2.875 L 13.96875 -5.53125 L 13.84375 -5.515625 C 13.101562 -4.097656 12.289062 -3.082031 11.40625 -2.46875 C 10.53125 -1.851562 9.363281 -1.40625 7.90625 -1.125 C 5.976562 -0.757812 4.375 -0.96875 3.09375 -1.75 C 1.8125 -2.539062 0.992188 -3.859375 0.640625 -5.703125 C -0.0976562 -9.628906 2.648438 -12.285156 8.890625 -13.671875 L 12.1875 -14.40625 L 11.953125 -15.609375 C 11.671875 -17.140625 11.128906 -18.207031 10.328125 -18.8125 C 9.535156 -19.414062 8.414062 -19.582031 6.96875 -19.3125 C 5.34375 -19 3.601562 -18.148438 1.75 -16.765625 L 0.421875 -18.84375 C 1.273438 -19.539062 2.242188 -20.144531 3.328125 -20.65625 C 4.410156 -21.175781 5.523438 -21.546875 6.671875 -21.765625 C 8.992188 -22.203125 10.8125 -22.015625 12.125 -21.203125 C 13.445312 -20.390625 14.320312 -18.847656 14.75 -16.578125 L 17.28125 -3.28125 Z M 8.046875 -3.6875 C 9.878906 -4.03125 11.222656 -4.800781 12.078125 -6 C 12.941406 -7.207031 13.203125 -8.71875 12.859375 -10.53125 L 12.53125 -12.296875 L 9.59375 -11.609375 C 7.269531 -11.085938 5.648438 -10.40625 4.734375 -9.5625 C 3.816406 -8.71875 3.488281 -7.613281 3.75 -6.25 C 3.945312 -5.1875 4.421875 -4.4375 5.171875 -4 C 5.921875 -3.5625 6.878906 -3.457031 8.046875 -3.6875 Z M 8.046875 -3.6875 "/></g></g></g><g fill="#130c23" fill-opacity="1"><g transform="translate(177.851591, 110.528678)"><g><path d="M 9.515625 -2.421875 C 10.046875 -2.441406 10.554688 -2.5 11.046875 -2.59375 C 11.535156 -2.6875 11.925781 -2.785156 12.21875 -2.890625 L 12.296875 -0.59375 C 11.972656 -0.425781 11.492188 -0.28125 10.859375 -0.15625 C 10.234375 -0.03125 9.671875 0.0390625 9.171875 0.0625 C 5.335938 0.1875 3.351562 -1.769531 3.21875 -5.8125 L 2.828125 -17.578125 L -0.015625 -17.484375 L -0.0625 -18.9375 L 2.75 -20.265625 L 3.875 -24.546875 L 5.609375 -24.59375 L 5.75 -20 L 11.5 -20.203125 L 11.578125 -17.875 L 5.828125 -17.671875 L 6.21875 -6.03125 C 6.257812 -4.832031 6.570312 -3.921875 7.15625 -3.296875 C 7.738281 -2.679688 8.523438 -2.390625 9.515625 -2.421875 Z M 9.515625 -2.421875 "/></g></g></g><g fill="#130c23" fill-opacity="1"><g transform="translate(188.76053, 109.702175)"><g><path d="M 11.40625 1.78125 C 8.507812 1.414062 6.328125 0.242188 4.859375 -1.734375 C 3.398438 -3.710938 2.863281 -6.273438 3.25 -9.421875 C 3.644531 -12.585938 4.738281 -15.003906 6.53125 -16.671875 C 8.320312 -18.347656 10.535156 -19.019531 13.171875 -18.6875 C 15.628906 -18.382812 17.476562 -17.335938 18.71875 -15.546875 C 19.957031 -13.753906 20.410156 -11.53125 20.078125 -8.875 L 19.84375 -6.96875 L 6.28125 -8.640625 C 6.0625 -6.335938 6.429688 -4.519531 7.390625 -3.1875 C 8.359375 -1.851562 9.84375 -1.066406 11.84375 -0.828125 C 13.96875 -0.554688 16.113281 -0.734375 18.28125 -1.359375 L 17.953125 1.28125 C 16.859375 1.613281 15.828125 1.816406 14.859375 1.890625 C 13.890625 1.972656 12.738281 1.9375 11.40625 1.78125 Z M 12.828125 -16.21875 C 11.253906 -16.40625 9.929688 -16.046875 8.859375 -15.140625 C 7.785156 -14.234375 7.054688 -12.878906 6.671875 -11.078125 L 16.953125 -9.796875 C 17.179688 -11.671875 16.941406 -13.160156 16.234375 -14.265625 C 15.523438 -15.367188 14.390625 -16.019531 12.828125 -16.21875 Z M 12.828125 -16.21875 "/></g></g></g><g fill="#130c23" fill-opacity="1"><g transform="translate(206.707402, 111.540993)"><g><path d="M 11.96875 -16.875 L 7.90625 -4.703125 C 7.382812 -3.160156 7.347656 -1.894531 7.796875 -0.90625 C 8.242188 0.0703125 9.210938 0.8125 10.703125 1.3125 C 12.671875 1.96875 14.285156 1.910156 15.546875 1.140625 C 16.816406 0.367188 17.859375 -1.234375 18.671875 -3.671875 L 21.96875 -13.53125 L 24.8125 -12.578125 L 18.53125 6.203125 L 16.1875 5.421875 L 16.625 2.765625 L 16.453125 2.71875 C 15.566406 3.445312 14.523438 3.878906 13.328125 4.015625 C 12.128906 4.160156 10.867188 4.015625 9.546875 3.578125 C 7.253906 2.804688 5.722656 1.6875 4.953125 0.21875 C 4.179688 -1.25 4.191406 -3.175781 4.984375 -5.5625 L 9.09375 -17.84375 Z M 11.96875 -16.875 "/></g></g></g><g fill="#130c23" fill-opacity="1"><g transform="translate(225.810402, 117.928738)"><g><path d="M 16.59375 3.0625 C 15.6875 4.664062 14.390625 5.566406 12.703125 5.765625 C 11.015625 5.972656 9.085938 5.472656 6.921875 4.265625 C 4.617188 2.984375 3.03125 1.617188 2.15625 0.171875 L 3.5 -2.25 C 4.101562 -1.363281 4.8125 -0.535156 5.625 0.234375 C 6.445312 1.015625 7.300781 1.648438 8.1875 2.140625 C 9.550781 2.910156 10.722656 3.28125 11.703125 3.25 C 12.691406 3.226562 13.4375 2.769531 13.9375 1.875 C 14.3125 1.195312 14.335938 0.457031 14.015625 -0.34375 C 13.691406 -1.15625 12.867188 -2.359375 11.546875 -3.953125 C 10.265625 -5.453125 9.410156 -6.613281 8.984375 -7.4375 C 8.554688 -8.269531 8.332031 -9.0625 8.3125 -9.8125 C 8.300781 -10.5625 8.515625 -11.332031 8.953125 -12.125 C 9.742188 -13.53125 10.9375 -14.316406 12.53125 -14.484375 C 14.132812 -14.660156 15.941406 -14.191406 17.953125 -13.078125 C 19.816406 -12.035156 21.421875 -10.644531 22.765625 -8.90625 L 20.65625 -7.296875 C 19.320312 -8.984375 17.945312 -10.222656 16.53125 -11.015625 C 15.289062 -11.710938 14.242188 -12.039062 13.390625 -12 C 12.546875 -11.957031 11.9375 -11.59375 11.5625 -10.90625 C 11.300781 -10.445312 11.195312 -9.988281 11.25 -9.53125 C 11.3125 -9.070312 11.519531 -8.546875 11.875 -7.953125 C 12.226562 -7.367188 13 -6.378906 14.1875 -4.984375 C 15.820312 -3.097656 16.789062 -1.570312 17.09375 -0.40625 C 17.394531 0.757812 17.226562 1.914062 16.59375 3.0625 Z M 16.59375 3.0625 "/></g></g></g><g fill="#130c23" fill-opacity="1"><g transform="translate(125.685342, 226.825547)"><g><path d="M 26.734375 5.21875 C 24.367188 8.300781 21.726562 10.125 18.8125 10.6875 C 15.90625 11.25 13.066406 10.46875 10.296875 8.34375 C 7.460938 6.164062 5.941406 3.617188 5.734375 0.703125 C 5.535156 -2.203125 6.648438 -5.234375 9.078125 -8.390625 C 11.484375 -11.523438 14.117188 -13.359375 16.984375 -13.890625 C 19.847656 -14.429688 22.703125 -13.609375 25.546875 -11.421875 C 28.304688 -9.296875 29.785156 -6.757812 29.984375 -3.8125 C 30.191406 -0.863281 29.109375 2.144531 26.734375 5.21875 Z M 11.421875 -6.546875 C 9.421875 -3.941406 8.457031 -1.546875 8.53125 0.640625 C 8.601562 2.835938 9.695312 4.75 11.8125 6.375 C 13.945312 8.007812 16.070312 8.578125 18.1875 8.078125 C 20.300781 7.578125 22.359375 6.019531 24.359375 3.40625 C 26.347656 0.820312 27.3125 -1.550781 27.25 -3.71875 C 27.195312 -5.882812 26.113281 -7.785156 24 -9.421875 C 21.863281 -11.054688 19.726562 -11.625 17.59375 -11.125 C 15.457031 -10.632812 13.398438 -9.109375 11.421875 -6.546875 Z M 11.421875 -6.546875 "/></g></g></g><g fill="#130c23" fill-opacity="1"><g transform="translate(149.927715, 243.630588)"><g><path d="M 5.203125 2.28125 L 2.671875 1.171875 L 13.015625 -22.453125 L 15.546875 -21.34375 Z M 5.203125 2.28125 "/></g></g></g><g fill="#130c23" fill-opacity="1"><g transform="translate(159.226276, 247.603714)"><g><path d="M 5.421875 1.640625 L 2.796875 0.84375 L 8.0625 -16.546875 L 10.6875 -15.75 Z M 9.265625 -21.328125 C 9.441406 -21.929688 9.71875 -22.328125 10.09375 -22.515625 C 10.476562 -22.710938 10.894531 -22.742188 11.34375 -22.609375 C 11.757812 -22.484375 12.078125 -22.226562 12.296875 -21.84375 C 12.523438 -21.457031 12.550781 -20.972656 12.375 -20.390625 C 12.195312 -19.796875 11.90625 -19.398438 11.5 -19.203125 C 11.101562 -19.003906 10.695312 -18.96875 10.28125 -19.09375 C 9.832031 -19.226562 9.503906 -19.484375 9.296875 -19.859375 C 9.097656 -20.242188 9.085938 -20.734375 9.265625 -21.328125 Z M 9.265625 -21.328125 "/></g></g></g><g fill="#130c23" fill-opacity="1"><g transform="translate(169.613737, 250.922214)"><g><path d="M 6.84375 0.796875 L 2.109375 -18.046875 L 5.046875 -17.703125 L 7.671875 -6.546875 C 8.253906 -3.929688 8.578125 -2.25 8.640625 -1.5 L 8.765625 -1.484375 C 8.960938 -2.046875 9.488281 -3.203125 10.34375 -4.953125 C 11.195312 -6.710938 13.109375 -10.535156 16.078125 -16.421875 L 19.015625 -16.078125 L 10.046875 1.171875 Z M 6.84375 0.796875 "/></g></g></g><g fill="#130c23" fill-opacity="1"><g transform="translate(189.780241, 252.994262)"><g><path d="M 10.546875 -1.078125 C 7.878906 -0.722656 5.664062 -1.25 3.90625 -2.65625 C 2.15625 -4.070312 1.085938 -6.222656 0.703125 -9.109375 C 0.304688 -12.003906 0.707031 -14.398438 1.90625 -16.296875 C 3.101562 -18.203125 4.90625 -19.316406 7.3125 -19.640625 C 9.570312 -19.953125 11.457031 -19.457031 12.96875 -18.15625 C 14.488281 -16.851562 15.414062 -14.984375 15.75 -12.546875 L 15.984375 -10.828125 L 3.578125 -9.15625 C 3.910156 -7.039062 4.65625 -5.503906 5.8125 -4.546875 C 6.96875 -3.585938 8.46875 -3.234375 10.3125 -3.484375 C 12.25 -3.742188 14.117188 -4.40625 15.921875 -5.46875 L 16.25 -3.046875 C 15.320312 -2.492188 14.441406 -2.066406 13.609375 -1.765625 C 12.785156 -1.472656 11.765625 -1.242188 10.546875 -1.078125 Z M 7.59375 -17.375 C 6.15625 -17.175781 5.066406 -16.546875 4.328125 -15.484375 C 3.597656 -14.421875 3.269531 -13.050781 3.34375 -11.375 L 12.765625 -12.640625 C 12.523438 -14.347656 11.957031 -15.609375 11.0625 -16.421875 C 10.175781 -17.242188 9.019531 -17.5625 7.59375 -17.375 Z M 7.59375 -17.375 "/></g></g></g><g fill="#130c23" fill-opacity="1"><g transform="translate(210.960036, 249.402415)"><g><path d="M 5.375 -1.8125 L 2.765625 -0.9375 L -3.046875 -18.15625 L -0.4375 -19.03125 Z M -4.828125 -22.734375 C -5.035156 -23.335938 -5.039062 -23.828125 -4.84375 -24.203125 C -4.644531 -24.578125 -4.320312 -24.835938 -3.875 -24.984375 C -3.46875 -25.128906 -3.0625 -25.109375 -2.65625 -24.921875 C -2.25 -24.734375 -1.945312 -24.347656 -1.75 -23.765625 C -1.5625 -23.191406 -1.570312 -22.707031 -1.78125 -22.3125 C -1.988281 -21.925781 -2.296875 -21.660156 -2.703125 -21.515625 C -3.148438 -21.367188 -3.566406 -21.390625 -3.953125 -21.578125 C -4.347656 -21.773438 -4.640625 -22.160156 -4.828125 -22.734375 Z M -4.828125 -22.734375 "/></g></g></g><g fill="#130c23" fill-opacity="1"><g transform="translate(221.020697, 246.060898)"><g><path d="M 1.375 -21.59375 C 2.09375 -21.96875 2.765625 -22.238281 3.390625 -22.40625 L 4.25 -19.984375 C 3.5 -19.785156 2.867188 -19.550781 2.359375 -19.28125 C 1.046875 -18.59375 0.207031 -17.476562 -0.15625 -15.9375 C -0.53125 -14.40625 -0.304688 -12.847656 0.515625 -11.265625 L 5.03125 -2.625 L 2.59375 -1.359375 L -5.8125 -17.46875 L -3.8125 -18.515625 L -1.984375 -15.671875 L -1.859375 -15.734375 C -1.804688 -17.097656 -1.503906 -18.28125 -0.953125 -19.28125 C -0.410156 -20.289062 0.363281 -21.0625 1.375 -21.59375 Z M 1.375 -21.59375 "/></g></g></g><g fill="#130c23" fill-opacity="1"><g transform="translate(235.915901, 238.227087)"><g><path d="M 10.703125 -9.171875 L 8.609375 -10.78125 L 8.5 -10.6875 C 8.5625 -9.226562 8.378906 -8.050781 7.953125 -7.15625 C 7.523438 -6.269531 6.800781 -5.390625 5.78125 -4.515625 C 4.414062 -3.335938 3.039062 -2.769531 1.65625 -2.8125 C 0.28125 -2.851562 -0.960938 -3.523438 -2.078125 -4.828125 C -4.460938 -7.617188 -3.484375 -10.988281 0.859375 -14.9375 L 3.125 -17 L 2.390625 -17.859375 C 1.460938 -18.941406 0.546875 -19.546875 -0.359375 -19.671875 C -1.265625 -19.796875 -2.226562 -19.421875 -3.25 -18.546875 C -4.394531 -17.554688 -5.394531 -16.085938 -6.25 -14.140625 L -8.265625 -15.1875 C -7.898438 -16.132812 -7.398438 -17.0625 -6.765625 -17.96875 C -6.140625 -18.875 -5.421875 -19.675781 -4.609375 -20.375 C -2.960938 -21.78125 -1.425781 -22.453125 0 -22.390625 C 1.414062 -22.335938 2.8125 -21.507812 4.1875 -19.90625 L 12.25 -10.484375 Z M 4.71875 -6.59375 C 6.007812 -7.695312 6.722656 -8.925781 6.859375 -10.28125 C 6.992188 -11.644531 6.507812 -12.96875 5.40625 -14.25 L 4.34375 -15.5 L 2.34375 -13.59375 C 0.726562 -12.125 -0.25 -10.84375 -0.59375 -9.75 C -0.9375 -8.664062 -0.691406 -7.640625 0.140625 -6.671875 C 0.773438 -5.921875 1.488281 -5.539062 2.28125 -5.53125 C 3.082031 -5.53125 3.894531 -5.882812 4.71875 -6.59375 Z M 4.71875 -6.59375 "/></g></g></g></svg>